<?xml version="1.0" encoding="utf-8"?>
<!-- Generator: Adobe Illustrator 25.2.3, SVG Export Plug-In . SVG Version: 6.00 Build 0)  -->
<svg version="1.1" id="Слой_1" xmlns:xodm="http://www.corel.com/coreldraw/odm/2003"
	 xmlns="http://www.w3.org/2000/svg" xmlns:xlink="http://www.w3.org/1999/xlink" x="0px" y="0px" viewBox="0 0 72 19.2"
	 style="enable-background:new 0 0 72 19.2;" xml:space="preserve">
<style type="text/css">
	.st0{fill:#D09F0C;}
</style>
<path id="UnderText" class="st0" d="M4.9,17.3c0,0,0-0.1-0.1-0.1c0,0,0-0.1,0-0.1c0.1,0,0.2,0,0.2,0c0,0,0.1-0.1,0.1-0.2v-1.9
	c0-0.1,0-0.1-0.1-0.2c0,0-0.1,0-0.2,0c0,0,0-0.1,0-0.1c0,0,0-0.1,0.1-0.1h1c0,0,0,0.1,0.1,0.1c0,0,0,0.1,0,0.1c-0.1,0-0.2,0-0.2,0
	c0,0-0.1,0.1-0.1,0.2v1.9c0,0.1,0,0.1,0.1,0.2c0,0,0.1,0,0.2,0c0,0,0,0.1,0,0.1c0,0,0,0.1-0.1,0.1H4.9z M66.3,16.9
	c0.2,0,0.3-0.1,0.5-0.2c0,0,0,0.1,0.1,0.1c0,0,0,0.1,0,0.1c0,0,0,0.1-0.1,0.2c-0.1,0.1-0.2,0.1-0.3,0.2c-0.1,0-0.2,0.1-0.4,0.1
	c-0.2,0-0.4,0-0.5-0.1c-0.2-0.1-0.3-0.2-0.3-0.4c-0.1-0.2-0.1-0.4-0.1-0.6c0-0.2,0-0.4,0.1-0.6c0.1-0.2,0.2-0.3,0.4-0.4
	c0.2-0.1,0.3-0.1,0.5-0.1c0.2,0,0.4,0.1,0.6,0.2c0.1,0.1,0.2,0.3,0.2,0.6c0,0.1,0,0.2-0.1,0.3c0,0.1-0.1,0.1-0.2,0.1h-0.9
	C65.8,16.7,66,16.9,66.3,16.9L66.3,16.9z M66.1,15.4c-0.1,0-0.2,0-0.2,0.1c-0.1,0.1-0.1,0.3-0.1,0.5h0.4c0,0,0.1,0,0.1,0
	s0-0.1,0-0.1c0-0.2,0-0.3-0.1-0.3C66.2,15.4,66.1,15.4,66.1,15.4L66.1,15.4z M64.7,16.9c0,0.1,0.1,0.2,0.2,0.2v0.1
	c-0.1,0.1-0.3,0.1-0.5,0.1c-0.1,0-0.2,0-0.3,0c-0.1,0-0.1-0.1-0.1-0.2v-1.4c0-0.1,0-0.2-0.1-0.2c0,0-0.1-0.1-0.2-0.1
	c-0.1,0-0.2,0-0.3,0.1c0,0,0,0,0,0.1v1.2c0,0.1,0,0.1,0,0.2c0,0,0.1,0,0.2,0c0,0.1,0,0.2-0.1,0.2h-0.9c-0.1-0.1-0.1-0.1-0.1-0.2
	c0.1,0,0.1,0,0.1,0c0,0,0-0.1,0-0.2v-1.1c0-0.1,0-0.2-0.1-0.2c0,0-0.1-0.1-0.2-0.1c-0.1,0-0.1,0-0.2,0c-0.1,0-0.1,0.1-0.1,0.1v1.2
	c0,0.1,0,0.1,0,0.2c0,0,0.1,0,0.1,0c0,0.1,0,0.2-0.1,0.2h-0.9c-0.1-0.1-0.1-0.1-0.1-0.2c0.1,0,0.1,0,0.2,0c0,0,0.1-0.1,0.1-0.2v-1.2
	c0-0.1,0-0.1-0.1-0.2c0,0-0.1,0-0.2,0v-0.2c0.1-0.1,0.2-0.1,0.4-0.1c0.2,0,0.3-0.1,0.4-0.1c0.1,0,0.1,0,0.1,0.1c0,0,0.1,0.1,0.1,0.2
	c0.1-0.1,0.2-0.1,0.3-0.2c0.1,0,0.2-0.1,0.4-0.1c0.3,0,0.5,0.1,0.5,0.3c0.1-0.1,0.2-0.2,0.3-0.2c0.1,0,0.2-0.1,0.4-0.1
	c0.2,0,0.3,0,0.4,0.1c0.1,0.1,0.1,0.2,0.1,0.4L64.7,16.9L64.7,16.9z M61,14.4c0,0.1,0,0.2-0.1,0.3c-0.1,0.1-0.2,0.1-0.3,0.1
	c-0.1,0-0.2,0-0.3-0.1c-0.1-0.1-0.1-0.2-0.1-0.3c0-0.1,0-0.2,0.1-0.3c0.1-0.1,0.2-0.1,0.3-0.1c0.1,0,0.2,0,0.3,0.1
	C61,14.2,61,14.3,61,14.4L61,14.4z M60.9,16.9c0,0.1,0,0.1,0.1,0.2c0,0,0.1,0,0.2,0c0,0.1,0,0.2-0.1,0.2h-0.9
	c-0.1-0.1-0.1-0.1-0.1-0.2c0.1,0,0.1,0,0.2,0c0,0,0.1-0.1,0.1-0.2v-1.2c0-0.1,0-0.1-0.1-0.2c0,0-0.1,0-0.2,0v-0.2
	c0.1,0,0.2-0.1,0.3-0.1c0.2,0,0.3-0.1,0.4-0.1c0.1,0,0.1,0,0.1,0c0,0,0,0.1,0,0.1L60.9,16.9L60.9,16.9z M59.4,15.5v1.2
	c0,0.1,0,0.1,0,0.2c0,0,0.1,0,0.1,0c0.1,0,0.1,0,0.2,0c0.1,0,0.1-0.1,0.1-0.1c0,0,0,0.1,0.1,0.1c0,0,0,0.1,0,0.1
	c0,0.1,0,0.1-0.1,0.2c0,0.1-0.1,0.1-0.2,0.1c-0.1,0-0.2,0.1-0.3,0.1c-0.2,0-0.3-0.1-0.5-0.2c-0.1-0.1-0.2-0.3-0.2-0.5v-1.1h-0.3
	v-0.3c0.1,0,0.1-0.1,0.2-0.1c0.1-0.1,0.1-0.2,0.2-0.3c0-0.1,0.1-0.2,0.1-0.4c0,0,0.1,0,0.1,0c0.1,0,0.2,0,0.2,0.1
	c0,0.1,0.1,0.1,0.1,0.2v0.4h0.5c0,0.1,0,0.2,0,0.2c0,0.1,0,0.1-0.1,0.2C59.8,15.5,59.4,15.5,59.4,15.5z M57,15.5v1.2
	c0,0.1,0,0.1,0,0.2c0,0,0.1,0,0.1,0c0.1,0,0.1,0,0.2,0c0.1,0,0.1-0.1,0.1-0.1c0,0,0,0.1,0.1,0.1c0,0,0,0.1,0,0.1
	c0,0.1,0,0.1-0.1,0.2c0,0.1-0.1,0.1-0.2,0.1c-0.1,0-0.2,0.1-0.3,0.1c-0.2,0-0.3-0.1-0.5-0.2c-0.1-0.1-0.2-0.3-0.2-0.5v-1.1h-0.3
	v-0.3c0.1,0,0.1-0.1,0.2-0.1c0.1-0.1,0.1-0.2,0.2-0.3c0-0.1,0.1-0.2,0.1-0.4c0,0,0.1,0,0.1,0c0.1,0,0.2,0,0.2,0.1
	c0,0.1,0.1,0.1,0.1,0.2v0.4h0.5c0,0.1,0,0.2,0,0.2c0,0.1,0,0.1-0.1,0.2H57L57,15.5z M56,17.2c-0.1,0.1-0.2,0.1-0.5,0.1
	c-0.3,0-0.4-0.1-0.4-0.3v-1.3c0-0.1,0-0.2-0.1-0.2c0,0-0.1-0.1-0.2-0.1c-0.1,0-0.1,0-0.2,0.1c-0.1,0-0.1,0.1-0.1,0.1v1.2
	c0,0.1,0,0.1,0,0.2c0,0,0.1,0,0.2,0c0,0.1,0,0.2-0.1,0.2h-0.9c-0.1-0.1-0.1-0.1-0.1-0.2c0.1,0,0.1,0,0.2,0c0,0,0.1-0.1,0.1-0.2v-2.2
	c0-0.1,0-0.1-0.1-0.2c0,0-0.1,0-0.2,0v-0.2c0.1-0.1,0.2-0.1,0.4-0.1c0.2,0,0.3-0.1,0.4-0.1c0.1,0,0.1,0,0.1,0c0,0,0,0.1,0,0.1v0.8
	l0,0.3c0.1-0.1,0.2-0.2,0.3-0.2c0.1-0.1,0.2-0.1,0.4-0.1c0.2,0,0.3,0.1,0.4,0.2c0.1,0.1,0.1,0.3,0.1,0.5v1.1c0,0.1,0,0.1,0,0.2
	c0,0,0.1,0.1,0.1,0.1L56,17.2L56,17.2z M52.6,16.8c0.4,0,0.6,0.1,0.8,0.2c0.2,0.1,0.3,0.3,0.3,0.5c0,0.1-0.1,0.3-0.2,0.4
	c-0.1,0.1-0.2,0.2-0.4,0.3c-0.2,0.1-0.4,0.1-0.5,0.1c-0.3,0-0.6-0.1-0.7-0.2c-0.2-0.1-0.2-0.3-0.2-0.5c0-0.1,0-0.2,0.1-0.3
	c0.1-0.1,0.2-0.1,0.3-0.2c-0.1,0-0.1-0.1-0.1-0.1c0-0.1,0-0.1,0-0.2c0,0,0-0.1,0.1-0.1c0-0.1,0.1-0.1,0.2-0.1
	c-0.1-0.1-0.2-0.2-0.3-0.3c-0.1-0.1-0.1-0.3-0.1-0.4c0-0.1,0-0.3,0.1-0.4c0.1-0.1,0.2-0.2,0.3-0.3c0.1-0.1,0.3-0.1,0.5-0.1h0
	c0.1,0,0.2,0,0.3,0c0.3,0,0.4,0,0.5,0c0.1,0,0.2,0,0.3,0c0,0,0,0,0.1,0.1c0,0,0,0.1,0,0.1c0,0.1-0.1,0.2-0.2,0.2c0,0-0.1,0-0.2-0.1
	c0,0-0.1,0-0.1,0c0.1,0.1,0.2,0.2,0.2,0.3c0,0.1,0.1,0.2,0.1,0.3c0,0.3-0.1,0.5-0.3,0.6c-0.2,0.1-0.4,0.2-0.7,0.2
	c-0.1,0-0.2,0-0.3,0v0c0,0.1,0,0.1,0.1,0.1C52.3,16.8,52.4,16.8,52.6,16.8L52.6,16.8z M52.5,15.4c-0.1,0-0.2,0-0.2,0.1
	c0,0.1-0.1,0.2-0.1,0.4c0,0.3,0.1,0.5,0.2,0.5c0.1,0,0.2,0,0.2-0.1c0-0.1,0.1-0.2,0.1-0.4c0-0.2,0-0.3-0.1-0.3
	C52.7,15.4,52.6,15.4,52.5,15.4L52.5,15.4z M52.6,17.9c0.1,0,0.2,0,0.3-0.1c0.1-0.1,0.1-0.1,0.1-0.2c0-0.1-0.1-0.1-0.2-0.2
	c-0.1,0-0.3-0.1-0.5-0.1l-0.2,0c0,0.1-0.1,0.1-0.1,0.2c0,0.1,0,0.2,0.1,0.3C52.3,17.9,52.5,17.9,52.6,17.9L52.6,17.9z M51.2,14.4
	c0,0.1,0,0.2-0.1,0.3c-0.1,0.1-0.2,0.1-0.3,0.1c-0.1,0-0.2,0-0.3-0.1c-0.1-0.1-0.1-0.2-0.1-0.3c0-0.1,0-0.2,0.1-0.3
	c0.1-0.1,0.2-0.1,0.3-0.1c0.1,0,0.2,0,0.3,0.1C51.2,14.2,51.2,14.3,51.2,14.4L51.2,14.4z M51.1,16.9c0,0.1,0,0.1,0.1,0.2
	c0,0,0.1,0,0.2,0c0,0.1,0,0.2-0.1,0.2h-0.9c-0.1-0.1-0.1-0.1-0.1-0.2c0.1,0,0.1,0,0.2,0c0,0,0.1-0.1,0.1-0.2v-1.2
	c0-0.1,0-0.1-0.1-0.2c0,0-0.1,0-0.2,0v-0.2c0.1,0,0.2-0.1,0.3-0.1c0.2,0,0.3-0.1,0.4-0.1c0.1,0,0.1,0,0.1,0c0,0,0,0.1,0,0.1V16.9z
	 M49.8,15.1c0.1,0,0.2,0,0.3,0.1c0.1,0.1,0.1,0.1,0.1,0.3c0,0.1,0,0.2-0.1,0.3c-0.1,0.1-0.1,0.1-0.2,0.1c-0.1,0-0.2,0-0.2-0.1
	c-0.1-0.1-0.1-0.1-0.1-0.2c0,0,0-0.1,0-0.1c-0.1,0-0.2,0.1-0.3,0.1v1.2c0,0.1,0,0.1,0,0.2c0,0,0.1,0.1,0.1,0.1c0.1,0,0.1,0,0.3,0
	c0,0,0,0.1,0,0.1c0,0,0,0.1-0.1,0.1h-1.1c-0.1-0.1-0.1-0.1-0.1-0.2c0.1,0,0.1,0,0.2,0c0,0,0.1-0.1,0.1-0.2v-1.2c0-0.1,0-0.1-0.1-0.2
	c0,0-0.1,0-0.2,0v-0.2c0.1-0.1,0.2-0.1,0.4-0.1c0.2,0,0.3-0.1,0.3-0.1c0.1,0,0.1,0,0.1,0.1c0,0,0,0.1,0,0.3c0-0.1,0.1-0.2,0.2-0.3
	C49.6,15.1,49.7,15.1,49.8,15.1L49.8,15.1z M46.8,16.9c0.2,0,0.3-0.1,0.5-0.2c0,0,0,0.1,0.1,0.1c0,0,0,0.1,0,0.1c0,0,0,0.1-0.1,0.2
	c-0.1,0.1-0.2,0.1-0.3,0.2c-0.1,0-0.2,0.1-0.4,0.1c-0.2,0-0.4,0-0.5-0.1c-0.2-0.1-0.3-0.2-0.3-0.4c-0.1-0.2-0.1-0.4-0.1-0.6
	c0-0.2,0-0.4,0.1-0.6c0.1-0.2,0.2-0.3,0.4-0.4c0.2-0.1,0.3-0.1,0.5-0.1c0.2,0,0.4,0.1,0.6,0.2c0.1,0.1,0.2,0.3,0.2,0.6
	c0,0.1,0,0.2-0.1,0.3c0,0.1-0.1,0.1-0.2,0.1h-0.9C46.3,16.7,46.5,16.9,46.8,16.9L46.8,16.9z M46.6,15.4c-0.1,0-0.2,0-0.2,0.1
	c-0.1,0.1-0.1,0.3-0.1,0.5h0.4c0,0,0.1,0,0.1,0c0,0,0-0.1,0-0.1c0-0.2,0-0.3-0.1-0.3C46.7,15.4,46.7,15.4,46.6,15.4L46.6,15.4z
	 M45.4,17.2c-0.1,0.1-0.2,0.1-0.5,0.1c-0.3,0-0.4-0.1-0.4-0.3v-1.3c0-0.1,0-0.2-0.1-0.2c0,0-0.1-0.1-0.2-0.1c-0.1,0-0.1,0-0.2,0.1
	c-0.1,0-0.1,0.1-0.1,0.1v1.2c0,0.1,0,0.1,0,0.2c0,0,0.1,0,0.2,0c0,0.1,0,0.2-0.1,0.2h-0.9c-0.1-0.1-0.1-0.1-0.1-0.2
	c0.1,0,0.1,0,0.2,0c0,0,0.1-0.1,0.1-0.2v-2.2c0-0.1,0-0.1-0.1-0.2c0,0-0.1,0-0.2,0v-0.2c0.1-0.1,0.2-0.1,0.4-0.1
	c0.2,0,0.3-0.1,0.4-0.1c0.1,0,0.1,0,0.1,0c0,0,0,0.1,0,0.1v0.8l0,0.3c0.1-0.1,0.2-0.2,0.3-0.2c0.1-0.1,0.2-0.1,0.4-0.1
	c0.2,0,0.3,0.1,0.4,0.2c0.1,0.1,0.1,0.3,0.1,0.5v1.1c0,0.1,0,0.1,0,0.2c0,0,0.1,0.1,0.1,0.1L45.4,17.2L45.4,17.2z M42.4,15.5v1.2
	c0,0.1,0,0.1,0,0.2c0,0,0.1,0,0.1,0c0.1,0,0.1,0,0.2,0c0.1,0,0.1-0.1,0.1-0.1c0,0,0,0.1,0.1,0.1c0,0,0,0.1,0,0.1
	c0,0.1,0,0.1-0.1,0.2c0,0.1-0.1,0.1-0.2,0.1c-0.1,0-0.2,0.1-0.3,0.1c-0.2,0-0.3-0.1-0.5-0.2c-0.1-0.1-0.2-0.3-0.2-0.5v-1.1h-0.3
	v-0.3c0.1,0,0.1-0.1,0.2-0.1c0.1-0.1,0.1-0.2,0.2-0.3c0-0.1,0.1-0.2,0.1-0.4c0,0,0.1,0,0.1,0c0.1,0,0.2,0,0.2,0.1
	c0,0.1,0.1,0.1,0.1,0.2v0.4h0.5c0,0.1,0,0.2,0,0.2c0,0.1,0,0.1-0.1,0.2H42.4L42.4,15.5z M40.1,15.5v1.2c0,0.1,0,0.1,0,0.2
	c0,0,0.1,0,0.1,0c0.1,0,0.1,0,0.2,0c0.1,0,0.1-0.1,0.1-0.1c0,0,0,0.1,0.1,0.1c0,0,0,0.1,0,0.1c0,0.1,0,0.1-0.1,0.2
	c0,0.1-0.1,0.1-0.2,0.1c-0.1,0-0.2,0.1-0.3,0.1c-0.2,0-0.3-0.1-0.5-0.2c-0.1-0.1-0.2-0.3-0.2-0.5v-1.1h-0.3v-0.3
	c0.1,0,0.1-0.1,0.2-0.1c0.1-0.1,0.1-0.2,0.2-0.3c0-0.1,0.1-0.2,0.1-0.4c0,0,0.1,0,0.1,0c0.1,0,0.2,0,0.2,0.1c0,0.1,0.1,0.1,0.1,0.2
	v0.4h0.5c0,0.1,0,0.2,0,0.2c0,0.1,0,0.1-0.1,0.2C40.5,15.5,40.1,15.5,40.1,15.5z M37,16.7c0-0.2,0.1-0.3,0.2-0.4s0.3-0.2,0.5-0.2
	c0.1,0,0.2,0,0.2,0c0.1,0,0.2,0,0.2,0.1v-0.5c0-0.1,0-0.2-0.1-0.2c-0.1,0-0.1-0.1-0.2-0.1c-0.1,0-0.2,0-0.2,0.1c0.1,0,0.1,0,0.1,0.1
	c0,0,0,0.1,0,0.1c0,0.1,0,0.2-0.1,0.2c-0.1,0.1-0.1,0.1-0.2,0.1c-0.1,0-0.2,0-0.2-0.1c-0.1-0.1-0.1-0.1-0.1-0.2s0-0.2,0.1-0.3
	c0.1-0.1,0.2-0.2,0.3-0.2c0.1-0.1,0.3-0.1,0.5-0.1c0.3,0,0.5,0.1,0.6,0.2c0.1,0.1,0.2,0.3,0.2,0.5v1.1c0,0.1,0.1,0.2,0.2,0.2v0.1
	c0,0-0.1,0.1-0.2,0.1c-0.1,0-0.2,0-0.3,0c-0.2,0-0.3-0.1-0.4-0.2c-0.1,0.1-0.1,0.1-0.2,0.1c-0.1,0-0.2,0.1-0.3,0.1
	c-0.2,0-0.4-0.1-0.5-0.2C37.1,17.1,37,16.9,37,16.7L37,16.7z M38.2,16.6c0,0-0.1,0-0.1,0c0,0-0.1,0-0.1,0c-0.1,0-0.1,0-0.2,0.1
	c0,0-0.1,0.1-0.1,0.2c0,0.1,0,0.1,0.1,0.2c0,0,0.1,0.1,0.2,0.1c0,0,0.1,0,0.1,0c0,0,0.1,0,0.1,0C38.2,17,38.2,16.6,38.2,16.6z
	 M35.4,16.9c0.2,0,0.3-0.1,0.5-0.2c0,0,0,0.1,0.1,0.1s0,0.1,0,0.1c0,0,0,0.1-0.1,0.2c-0.1,0.1-0.2,0.1-0.3,0.2
	c-0.1,0-0.2,0.1-0.4,0.1c-0.2,0-0.4,0-0.5-0.1c-0.2-0.1-0.3-0.2-0.3-0.4c-0.1-0.2-0.1-0.4-0.1-0.6c0-0.2,0-0.4,0.1-0.6
	c0.1-0.2,0.2-0.3,0.4-0.4c0.2-0.1,0.3-0.1,0.5-0.1c0.2,0,0.4,0.1,0.6,0.2c0.1,0.1,0.2,0.3,0.2,0.6c0,0.1,0,0.2-0.1,0.3
	c0,0.1-0.1,0.1-0.2,0.1h-0.9C34.9,16.7,35.1,16.9,35.4,16.9L35.4,16.9z M35.2,15.4c-0.1,0-0.2,0-0.2,0.1c-0.1,0.1-0.1,0.3-0.1,0.5
	h0.4c0,0,0.1,0,0.1,0c0,0,0-0.1,0-0.1c0-0.2,0-0.3-0.1-0.3C35.3,15.4,35.3,15.4,35.2,15.4z M33.9,16.8C34,16.8,34,16.9,33.9,16.8
	C34,16.9,34,17,34,17c0,0.1,0,0.1-0.1,0.2c-0.1,0.1-0.1,0.1-0.3,0.1c-0.1,0-0.2,0.1-0.3,0.1c-0.2,0-0.4,0-0.5-0.1
	c-0.2-0.1-0.3-0.2-0.4-0.4c-0.1-0.2-0.1-0.4-0.1-0.6c0-0.2,0-0.4,0.1-0.6c0.1-0.2,0.2-0.3,0.4-0.4c0.2-0.1,0.3-0.1,0.5-0.1
	s0.4,0,0.5,0.1c0.1,0.1,0.2,0.2,0.2,0.4c0,0.1,0,0.2-0.1,0.3C33.9,16,33.8,16,33.7,16c-0.1,0-0.2,0-0.2-0.1
	c-0.1-0.1-0.1-0.1-0.1-0.2c0-0.1,0-0.1,0-0.2c0,0,0.1-0.1,0.1-0.1c0,0-0.1,0-0.1,0c-0.1,0-0.2,0.1-0.2,0.2c-0.1,0.1-0.1,0.3-0.1,0.5
	c0,0.3,0,0.5,0.1,0.6c0.1,0.1,0.2,0.2,0.4,0.2c0.1,0,0.2,0,0.2,0C33.8,16.9,33.9,16.8,33.9,16.8L33.9,16.8z M30.1,16.8
	c0-0.2,0.1-0.3,0.2-0.4c0.1-0.1,0.3-0.2,0.5-0.2c0.1,0,0.2,0,0.3,0c0.1,0,0.2,0,0.2,0.1v-0.5c0-0.1,0-0.2-0.1-0.2
	c-0.1,0-0.1-0.1-0.2-0.1c-0.1,0-0.2,0-0.2,0.1c0.1,0,0.1,0,0.1,0.1c0,0,0,0.1,0,0.1c0,0.1,0,0.2-0.1,0.2c-0.1,0.1-0.1,0.1-0.2,0.1
	c-0.1,0-0.2,0-0.3-0.1c-0.1-0.1-0.1-0.1-0.1-0.2s0-0.2,0.1-0.3c0.1-0.1,0.2-0.2,0.3-0.2c0.1-0.1,0.3-0.1,0.5-0.1
	c0.3,0,0.5,0.1,0.6,0.2c0.1,0.1,0.2,0.3,0.2,0.5v1.1c0,0.1,0.1,0.2,0.2,0.2v0.1c0,0-0.1,0.1-0.2,0.1c-0.1,0-0.2,0-0.2,0
	c-0.2,0-0.3-0.1-0.4-0.2c-0.1,0.1-0.1,0.1-0.2,0.1c-0.1,0-0.2,0.1-0.3,0.1c-0.2,0-0.4-0.1-0.5-0.2C30.2,17.1,30.1,16.9,30.1,16.8
	L30.1,16.8z M31.3,16.6c0,0-0.1,0-0.1,0c0,0-0.1,0-0.1,0c-0.1,0-0.1,0-0.2,0.1c0,0-0.1,0.1-0.1,0.2c0,0.1,0,0.1,0.1,0.2
	c0,0,0.1,0.1,0.2,0.1c0,0,0.1,0,0.1,0c0,0,0.1,0,0.1,0L31.3,16.6L31.3,16.6z M29,14.7c0-0.1,0-0.1-0.1-0.2c0,0-0.1-0.1-0.2-0.1v-0.2
	c0.1-0.1,0.2-0.1,0.4-0.1c0.2,0,0.3-0.1,0.4-0.1c0.1,0,0.1,0,0.1,0c0,0,0,0.1,0,0.1v2.6c0,0.1,0,0.1,0,0.2c0,0,0.1,0,0.2,0
	c0,0.1,0,0.2-0.1,0.2h-0.9c-0.1-0.1-0.1-0.1-0.1-0.2c0.1,0,0.1,0,0.2,0c0,0,0.1-0.1,0.1-0.2L29,14.7L29,14.7z M27.5,17.4
	c0,0-0.1,0-0.2,0v0.3c0,0.1,0,0.1,0.1,0.2c0.1,0,0.1,0.1,0.2,0.1c0,0.1,0,0.2-0.1,0.2h-0.9c-0.1-0.1-0.1-0.1-0.1-0.2
	c0.1,0,0.1,0,0.2,0c0,0,0-0.1,0-0.2v-2c0-0.1,0-0.1-0.1-0.2c0,0-0.1,0-0.2,0v-0.2c0.1-0.1,0.2-0.1,0.3-0.1c0.1,0,0.2-0.1,0.3-0.1
	c0.1,0,0.1,0,0.1,0c0,0,0.1,0.1,0.1,0.1c0.1-0.1,0.3-0.2,0.5-0.2c0.2,0,0.3,0,0.4,0.1c0.1,0.1,0.2,0.2,0.3,0.3
	c0.1,0.2,0.1,0.3,0.1,0.6c0,0.3,0,0.5-0.1,0.7c-0.1,0.2-0.2,0.3-0.4,0.4C27.9,17.3,27.7,17.4,27.5,17.4L27.5,17.4z M27.9,16.2
	c0-0.3,0-0.5-0.1-0.6c-0.1-0.1-0.2-0.2-0.3-0.2c0,0-0.1,0-0.1,0V17c0,0,0.1,0,0.2,0c0.1,0,0.2-0.1,0.3-0.2
	C27.8,16.7,27.9,16.5,27.9,16.2L27.9,16.2z M25,15.5v1.2c0,0.1,0,0.1,0,0.2c0,0,0.1,0,0.1,0c0.1,0,0.1,0,0.2,0
	c0.1,0,0.1-0.1,0.1-0.1c0,0,0,0.1,0.1,0.1c0,0,0,0.1,0,0.1c0,0.1,0,0.1-0.1,0.2c0,0.1-0.1,0.1-0.2,0.1c-0.1,0-0.2,0.1-0.3,0.1
	c-0.2,0-0.3-0.1-0.5-0.2c-0.1-0.1-0.2-0.3-0.2-0.5v-1.1h-0.3v-0.3c0.1,0,0.1-0.1,0.2-0.1c0.1-0.1,0.1-0.2,0.2-0.3
	c0-0.1,0.1-0.2,0.1-0.4c0,0,0.1,0,0.1,0c0.1,0,0.2,0,0.2,0.1c0,0.1,0.1,0.1,0.1,0.2v0.4h0.5c0,0.1,0,0.2,0,0.2c0,0.1,0,0.1-0.1,0.2
	L25,15.5L25,15.5z M24,17.2c-0.1,0.1-0.2,0.1-0.5,0.1c-0.3,0-0.4-0.1-0.4-0.3v-1.3c0-0.1,0-0.2-0.1-0.2c0,0-0.1-0.1-0.2-0.1
	c-0.1,0-0.1,0-0.2,0.1c-0.1,0-0.1,0.1-0.1,0.1v1.2c0,0.1,0,0.1,0,0.2c0,0,0.1,0,0.2,0c0,0.1,0,0.2-0.1,0.2h-0.9
	c-0.1-0.1-0.1-0.1-0.1-0.2c0.1,0,0.1,0,0.2,0c0,0,0.1-0.1,0.1-0.2v-2.2c0-0.1,0-0.1-0.1-0.2c0,0-0.1,0-0.2,0v-0.2
	c0.1-0.1,0.2-0.1,0.4-0.1c0.2,0,0.3-0.1,0.4-0.1c0.1,0,0.1,0,0.1,0c0,0,0,0.1,0,0.1v0.8l0,0.3c0.1-0.1,0.2-0.2,0.3-0.2
	c0.1-0.1,0.2-0.1,0.4-0.1c0.2,0,0.3,0.1,0.4,0.2c0.1,0.1,0.1,0.3,0.1,0.5v1.1c0,0.1,0,0.1,0,0.2c0,0,0.1,0.1,0.1,0.1L24,17.2
	L24,17.2z M20.5,16.8c0.4,0,0.6,0.1,0.8,0.2c0.2,0.1,0.3,0.3,0.3,0.5c0,0.1-0.1,0.3-0.2,0.4c-0.1,0.1-0.2,0.2-0.4,0.3
	c-0.2,0.1-0.4,0.1-0.5,0.1c-0.3,0-0.6-0.1-0.7-0.2c-0.2-0.1-0.2-0.3-0.2-0.5c0-0.1,0-0.2,0.1-0.3c0.1-0.1,0.2-0.1,0.3-0.2
	c-0.1,0-0.1-0.1-0.1-0.1c0-0.1,0-0.1,0-0.2c0,0,0-0.1,0.1-0.1c0-0.1,0.1-0.1,0.2-0.1c-0.1-0.1-0.2-0.2-0.3-0.3
	c-0.1-0.1-0.1-0.3-0.1-0.4c0-0.1,0-0.3,0.1-0.4c0.1-0.1,0.2-0.2,0.3-0.3c0.1-0.1,0.3-0.1,0.5-0.1h0c0.1,0,0.2,0,0.3,0
	c0.3,0,0.4,0,0.5,0c0.1,0,0.2,0,0.3,0c0,0,0,0,0.1,0.1c0,0,0,0.1,0,0.1c0,0.1-0.1,0.2-0.2,0.2c0,0-0.1,0-0.2-0.1c0,0-0.1,0-0.1,0
	c0.1,0.1,0.2,0.2,0.2,0.3c0,0.1,0.1,0.2,0.1,0.3c0,0.3-0.1,0.5-0.3,0.6c-0.2,0.1-0.4,0.2-0.7,0.2c-0.1,0-0.2,0-0.3,0v0
	c0,0.1,0,0.1,0.1,0.1C20.3,16.8,20.4,16.8,20.5,16.8L20.5,16.8z M20.5,15.4c-0.1,0-0.2,0-0.2,0.1c0,0.1-0.1,0.2-0.1,0.4
	c0,0.3,0.1,0.5,0.2,0.5c0.1,0,0.2,0,0.2-0.1s0.1-0.2,0.1-0.4c0-0.2,0-0.3-0.1-0.3C20.6,15.4,20.5,15.4,20.5,15.4L20.5,15.4z
	 M20.6,17.9c0.1,0,0.2,0,0.3-0.1c0.1-0.1,0.1-0.1,0.1-0.2c0-0.1-0.1-0.1-0.2-0.2c-0.1,0-0.3-0.1-0.5-0.1l-0.2,0
	c0,0.1-0.1,0.1-0.1,0.2c0,0.1,0,0.2,0.1,0.3C20.3,17.9,20.4,17.9,20.6,17.9L20.6,17.9z M19.2,14.4c0,0.1,0,0.2-0.1,0.3
	c-0.1,0.1-0.2,0.1-0.3,0.1c-0.1,0-0.2,0-0.3-0.1c-0.1-0.1-0.1-0.2-0.1-0.3c0-0.1,0-0.2,0.1-0.3c0.1-0.1,0.2-0.1,0.3-0.1
	c0.1,0,0.2,0,0.3,0.1C19.1,14.2,19.2,14.3,19.2,14.4L19.2,14.4z M19.1,16.9c0,0.1,0,0.1,0.1,0.2c0,0,0.1,0,0.2,0
	c0,0.1,0,0.2-0.1,0.2h-0.9c-0.1-0.1-0.1-0.1-0.1-0.2c0.1,0,0.1,0,0.2,0c0,0,0.1-0.1,0.1-0.2v-1.2c0-0.1,0-0.1-0.1-0.2
	c0,0-0.1,0-0.2,0v-0.2c0.1,0,0.2-0.1,0.3-0.1c0.2,0,0.3-0.1,0.4-0.1c0.1,0,0.1,0,0.1,0c0,0,0,0.1,0,0.1
	C19.1,15.3,19.1,16.9,19.1,16.9z M17.8,15.1c0.1,0,0.2,0,0.3,0.1c0.1,0.1,0.1,0.1,0.1,0.3c0,0.1,0,0.2-0.1,0.3
	c-0.1,0.1-0.1,0.1-0.2,0.1c-0.1,0-0.2,0-0.2-0.1c-0.1-0.1-0.1-0.1-0.1-0.2c0,0,0-0.1,0-0.1c-0.1,0-0.2,0.1-0.3,0.1v1.2
	c0,0.1,0,0.1,0,0.2c0,0,0.1,0.1,0.1,0.1c0.1,0,0.1,0,0.3,0c0,0,0,0.1,0,0.1c0,0,0,0.1-0.1,0.1h-1.1c-0.1-0.1-0.1-0.1-0.1-0.2
	c0.1,0,0.1,0,0.2,0c0,0,0.1-0.1,0.1-0.2v-1.2c0-0.1,0-0.1-0.1-0.2c0,0-0.1,0-0.2,0v-0.2c0.1-0.1,0.2-0.1,0.4-0.1
	c0.2,0,0.3-0.1,0.3-0.1c0.1,0,0.1,0,0.1,0.1c0,0,0,0.1,0,0.3c0-0.1,0.1-0.2,0.2-0.3C17.6,15.1,17.7,15.1,17.8,15.1L17.8,15.1z
	 M14.7,16.9c0.2,0,0.3-0.1,0.5-0.2c0,0,0,0.1,0.1,0.1c0,0,0,0.1,0,0.1c0,0,0,0.1-0.1,0.2c-0.1,0.1-0.2,0.1-0.3,0.2
	c-0.1,0-0.2,0.1-0.4,0.1c-0.2,0-0.4,0-0.5-0.1c-0.2-0.1-0.3-0.2-0.3-0.4c-0.1-0.2-0.1-0.4-0.1-0.6c0-0.2,0-0.4,0.1-0.6
	c0.1-0.2,0.2-0.3,0.4-0.4c0.2-0.1,0.3-0.1,0.5-0.1c0.2,0,0.4,0.1,0.6,0.2c0.1,0.1,0.2,0.3,0.2,0.6c0,0.1,0,0.2-0.1,0.3
	c0,0.1-0.1,0.1-0.2,0.1h-0.9C14.2,16.7,14.4,16.9,14.7,16.9L14.7,16.9z M14.5,15.4c-0.1,0-0.2,0-0.2,0.1c-0.1,0.1-0.1,0.3-0.1,0.5
	h0.4c0,0,0.1,0,0.1,0c0,0,0-0.1,0-0.1c0-0.2,0-0.3-0.1-0.3C14.7,15.4,14.6,15.4,14.5,15.4L14.5,15.4z M13.3,17.2
	c-0.1,0.1-0.2,0.1-0.5,0.1c-0.3,0-0.4-0.1-0.4-0.3v-1.3c0-0.1,0-0.2-0.1-0.2c0,0-0.1-0.1-0.2-0.1c-0.1,0-0.1,0-0.2,0.1
	c-0.1,0-0.1,0.1-0.1,0.1v1.2c0,0.1,0,0.1,0,0.2c0,0,0.1,0,0.2,0c0,0.1,0,0.2-0.1,0.2h-0.9c-0.1-0.1-0.1-0.1-0.1-0.2
	c0.1,0,0.1,0,0.2,0c0,0,0.1-0.1,0.1-0.2v-2.2c0-0.1,0-0.1-0.1-0.2c0,0-0.1,0-0.2,0v-0.2c0.1-0.1,0.2-0.1,0.4-0.1
	c0.2,0,0.3-0.1,0.4-0.1c0.1,0,0.1,0,0.1,0c0,0,0,0.1,0,0.1v0.8l0,0.3c0.1-0.1,0.2-0.2,0.3-0.2c0.1-0.1,0.2-0.1,0.4-0.1
	c0.2,0,0.3,0.1,0.4,0.2c0.1,0.1,0.1,0.3,0.1,0.5v1.1c0,0.1,0,0.1,0,0.2c0,0,0.1,0.1,0.1,0.1L13.3,17.2L13.3,17.2z M10.4,15.5v1.2
	c0,0.1,0,0.1,0,0.2c0,0,0.1,0,0.1,0c0.1,0,0.1,0,0.2,0c0.1,0,0.1-0.1,0.1-0.1c0,0,0,0.1,0.1,0.1c0,0,0,0.1,0,0.1
	c0,0.1,0,0.1-0.1,0.2c0,0.1-0.1,0.1-0.2,0.1c-0.1,0-0.2,0.1-0.3,0.1c-0.2,0-0.3-0.1-0.5-0.2c-0.1-0.1-0.2-0.3-0.2-0.5v-1.1H9.4v-0.3
	c0.1,0,0.1-0.1,0.2-0.1c0.1-0.1,0.1-0.2,0.2-0.3c0-0.1,0.1-0.2,0.1-0.4c0,0,0.1,0,0.1,0c0.1,0,0.2,0,0.2,0.1c0,0.1,0.1,0.1,0.1,0.2
	v0.4h0.5c0,0.1,0,0.2,0,0.2c0,0.1,0,0.1-0.1,0.2H10.4L10.4,15.5z M8.5,17.2c0,0-0.1,0.1-0.2,0.1c-0.1,0-0.2,0-0.3,0
	c-0.1,0-0.2,0-0.3-0.1c-0.1,0-0.1-0.1-0.1-0.2v-1.3c0-0.1,0-0.2-0.1-0.2c0,0-0.1-0.1-0.2-0.1c-0.1,0-0.2,0-0.3,0.1v1.3
	c0,0.1,0,0.1,0,0.2c0,0,0.1,0.1,0.2,0.1c0,0.1,0,0.2-0.1,0.2H6.3c-0.1-0.1-0.1-0.1-0.1-0.2c0.1,0,0.1,0,0.2-0.1c0,0,0.1-0.1,0.1-0.2
	v-1.2c0-0.1,0-0.1-0.1-0.2c0,0-0.1,0-0.2,0v-0.2c0.1,0,0.2-0.1,0.4-0.1c0.2,0,0.3-0.1,0.4-0.1c0.1,0,0.1,0,0.1,0.1
	c0,0,0.1,0.1,0.1,0.2c0.1-0.1,0.2-0.2,0.3-0.2c0.1-0.1,0.2-0.1,0.4-0.1c0.2,0,0.3,0.1,0.4,0.2c0.1,0.1,0.1,0.3,0.1,0.5v1.1
	c0,0.1,0.1,0.2,0.2,0.2L8.5,17.2L8.5,17.2z"/>
<path id="QualityWork" class="st0" d="M8.8,11.1c0,0,0.1,0.1,0.1,0.2C9,11.5,9,11.5,9,11.6c0,0.1-0.1,0.3-0.2,0.4s-0.3,0.3-0.5,0.4
	c-0.2,0.1-0.5,0.2-0.8,0.2s-0.6-0.1-0.8-0.2c-0.2-0.1-0.5-0.3-0.8-0.5c-0.2-0.2-0.5-0.3-0.6-0.4c-0.2-0.1-0.4-0.1-0.6-0.1
	c-0.3,0-0.5,0-0.7,0.1c-0.2,0-0.3,0.1-0.6,0.3L3,11.3c0.2-0.3,0.5-0.6,0.9-0.8c-0.7-0.1-1.2-0.3-1.7-0.6C1.7,9.5,1.3,9,1,8.4
	C0.8,7.8,0.6,7.1,0.6,6.3c0-0.9,0.1-1.7,0.4-2.3c0.3-0.6,0.7-1.1,1.3-1.5C2.9,2.2,3.6,2,4.3,2c0.8,0,1.4,0.2,2,0.5s1,0.9,1.3,1.5
	C7.8,4.7,8,5.4,8,6.3c0,1.1-0.2,1.9-0.6,2.6c-0.4,0.7-1,1.2-1.8,1.4c0.3,0.1,0.6,0.2,0.8,0.3c0.3,0.1,0.6,0.3,0.9,0.5
	c0.2,0.1,0.4,0.2,0.8,0.2C8.3,11.3,8.6,11.2,8.8,11.1z M71.4,10c0,0.2-0.1,0.3-0.3,0.4c-0.2,0.1-0.4,0.1-0.7,0.1
	c-0.4,0-0.7-0.1-1-0.3c-0.3-0.2-0.5-0.4-0.6-0.6c-0.1-0.2-0.3-0.6-0.5-1C68,8.3,67.9,8,67.7,7.8c-0.1-0.2-0.3-0.3-0.5-0.4v1.8
	c0,0.2,0,0.4,0.1,0.5c0.1,0.1,0.3,0.1,0.5,0.1c0,0.2-0.1,0.5-0.3,0.6H65c-0.2-0.2-0.3-0.4-0.3-0.6c0.2,0,0.4,0,0.5-0.1
	c0.1-0.1,0.2-0.3,0.2-0.5V2.8c0-0.2-0.1-0.3-0.2-0.4c-0.1-0.1-0.3-0.2-0.6-0.2V1.7c0.3-0.1,0.6-0.3,1.1-0.4c0.4-0.1,0.8-0.2,1-0.2
	c0.2,0,0.3,0,0.4,0.1c0.1,0.1,0.1,0.2,0.1,0.4v5.2l1.3-1.3c0.1-0.1,0.2-0.3,0.2-0.4c0-0.1-0.1-0.2-0.3-0.3c-0.2-0.1-0.3-0.1-0.5-0.1
	c0-0.1,0-0.3,0.1-0.4c0-0.1,0.1-0.2,0.2-0.3h2.7c0.1,0.1,0.2,0.4,0.2,0.7c-0.2,0-0.3,0-0.4,0.1c-0.1,0.1-0.2,0.1-0.3,0.2l-1.8,1.8
	c0.3,0,0.5,0.1,0.7,0.3c0.2,0.1,0.4,0.4,0.6,0.7c0.2,0.4,0.3,0.5,0.3,0.6c0.3,0.5,0.5,0.8,0.6,1c0.1,0.2,0.3,0.3,0.6,0.4L71.4,10
	L71.4,10z M63.5,4c0.4,0,0.6,0.1,0.8,0.3c0.2,0.2,0.2,0.4,0.2,0.7c0,0.3-0.1,0.6-0.3,0.8c-0.2,0.2-0.4,0.3-0.7,0.3
	c-0.3,0-0.5-0.1-0.6-0.2c-0.2-0.1-0.2-0.3-0.2-0.5c0-0.1,0-0.2,0-0.3c-0.3,0.1-0.5,0.2-0.7,0.4V9c0,0.2,0,0.3,0.1,0.4
	c0.1,0.1,0.2,0.2,0.3,0.2c0.2,0,0.4,0.1,0.7,0.1c0,0.1,0,0.3,0,0.4c0,0.1-0.1,0.2-0.2,0.3h-3.1c-0.2-0.2-0.3-0.4-0.3-0.6
	c0.2,0,0.4,0,0.5-0.1c0.1-0.1,0.2-0.3,0.2-0.5V5.7c0-0.2-0.1-0.4-0.2-0.4c-0.1-0.1-0.3-0.1-0.6-0.1V4.6c0.3-0.1,0.6-0.3,1-0.4
	c0.4-0.1,0.8-0.2,1-0.2c0.2,0,0.3,0.1,0.4,0.2c0.1,0.1,0.1,0.4,0.1,0.8c0.1-0.3,0.4-0.5,0.7-0.7C62.9,4.1,63.2,4,63.5,4L63.5,4z
	 M55.9,10.6c-0.9,0-1.6-0.3-2.1-0.8C53.3,9.2,53,8.4,53,7.4c0-0.7,0.1-1.3,0.4-1.9c0.3-0.5,0.6-0.9,1-1.2C54.9,4.1,55.4,4,56,4
	c0.6,0,1.1,0.1,1.5,0.4c0.4,0.2,0.8,0.6,1,1.1c0.2,0.5,0.4,1.1,0.4,1.7c0,0.7-0.1,1.3-0.4,1.8c-0.2,0.5-0.6,0.9-1,1.1
	C57,10.4,56.5,10.6,55.9,10.6L55.9,10.6z M56,9.7c0.3,0,0.5-0.2,0.6-0.5c0.1-0.3,0.2-0.9,0.2-1.7c0-0.7,0-1.3-0.1-1.7
	c-0.1-0.4-0.2-0.6-0.3-0.8c-0.1-0.1-0.3-0.2-0.5-0.2c-0.3,0-0.5,0.2-0.6,0.5c-0.1,0.3-0.2,0.9-0.2,1.8c0,0.7,0,1.3,0.1,1.6
	c0.1,0.4,0.2,0.6,0.3,0.8C55.6,9.6,55.8,9.7,56,9.7L56,9.7z M53.5,2.2c0.1,0.2,0.2,0.5,0.2,0.7c-0.3,0-0.5,0-0.6,0.1
	c-0.1,0.1-0.3,0.2-0.3,0.4l-1.5,5.4c-0.2,0.6-0.4,1-0.6,1.2c-0.2,0.3-0.5,0.4-0.9,0.4H49l-1.1-3.8L47.5,5l-0.4,1.7l-0.6,2.2
	c-0.2,0.6-0.3,1-0.6,1.2c-0.2,0.3-0.5,0.4-0.9,0.4h-0.6l-2.1-7C42.2,3.3,42.2,3.1,42,3c-0.1-0.1-0.3-0.1-0.6-0.1
	c0-0.3,0.1-0.5,0.2-0.7h3.2c0.1,0.3,0.2,0.5,0.2,0.7c-0.3,0-0.5,0-0.6,0.1c-0.1,0.1-0.2,0.2-0.2,0.4l1,3.8l0.2,1l1.1-4.3
	c0.1-0.3,0.2-0.6,0.3-0.8c0.1-0.2,0.3-0.3,0.6-0.3h1.2l1.2,4.5l0.3,1l0.3-1l0.9-3.4c0-0.1,0-0.2,0-0.2c0-0.2-0.1-0.4-0.2-0.5
	C51,3,50.8,2.9,50.5,2.9c0-0.3,0.1-0.5,0.2-0.7L53.5,2.2L53.5,2.2z M39.6,4.1c0.2,0.2,0.2,0.4,0.2,0.7c-0.2,0-0.3,0-0.4,0.1
	c-0.1,0.1-0.2,0.3-0.3,0.5l-1.3,4.2c-0.4,1.1-0.7,2-1.1,2.5s-0.9,0.8-1.5,0.8c-0.5,0-0.8-0.1-1.1-0.3c-0.3-0.2-0.4-0.4-0.4-0.7
	c0-0.2,0-0.4,0.1-0.5c0.1-0.1,0.2-0.3,0.4-0.3c0.2,0.3,0.5,0.4,0.9,0.4c0.3,0,0.5-0.1,0.7-0.4c0.2-0.2,0.4-0.6,0.6-1.1h-1l-1.8-4.4
	c0,0-0.1-0.1-0.1-0.3C33.5,5.1,33.4,5,33.3,5c-0.1-0.1-0.2-0.1-0.4-0.1c0-0.3,0.1-0.5,0.2-0.7H36c0.2,0.2,0.3,0.4,0.3,0.7
	c-0.4,0-0.5,0.2-0.5,0.5c0,0.1,0,0.3,0.1,0.4L36.9,9l0.8-3.4c0-0.1,0-0.2,0-0.3c0-0.3-0.2-0.5-0.6-0.5c0-0.3,0.1-0.6,0.2-0.7
	L39.6,4.1L39.6,4.1z M31.5,5.2v3.3c0,0.2,0,0.4,0.1,0.5c0.1,0.1,0.2,0.1,0.4,0.1c0.1,0,0.3,0,0.5-0.1c0.2-0.1,0.3-0.2,0.4-0.3
	C33,8.8,33,8.9,33.1,9c0,0.1,0.1,0.2,0.1,0.3c0,0.2-0.1,0.4-0.2,0.5c-0.1,0.2-0.3,0.3-0.6,0.4c-0.3,0.1-0.6,0.2-0.9,0.2
	c-0.6,0-1-0.2-1.3-0.5c-0.3-0.3-0.5-0.8-0.5-1.6V5.2h-0.7V4.5c0.2,0,0.4-0.2,0.6-0.4c0.2-0.2,0.4-0.5,0.5-0.9c0.1-0.4,0.2-0.7,0.3-1
	c0.1,0,0.3,0,0.4,0c0.3,0,0.5,0.1,0.6,0.2c0.1,0.2,0.2,0.3,0.2,0.5v1.2h1.4c0,0.2,0,0.4,0,0.6c0,0.2-0.1,0.3-0.2,0.4L31.5,5.2
	L31.5,5.2z M28.1,2.1c0,0.3-0.1,0.6-0.3,0.8c-0.2,0.2-0.5,0.3-0.8,0.3c-0.3,0-0.6-0.1-0.8-0.3c-0.2-0.2-0.3-0.5-0.3-0.8
	c0-0.3,0.1-0.6,0.3-0.8C26.4,1.1,26.7,1,27,1s0.6,0.1,0.8,0.3C28,1.5,28.1,1.7,28.1,2.1L28.1,2.1z M27.9,9.1c0,0.2,0.1,0.4,0.2,0.5
	c0.1,0.1,0.3,0.1,0.5,0.1c0,0.2-0.1,0.5-0.3,0.6h-2.7c-0.2-0.2-0.3-0.4-0.3-0.6c0.2,0,0.4,0,0.5-0.1c0.1-0.1,0.2-0.3,0.2-0.5V5.7
	c0-0.2-0.1-0.4-0.2-0.5c-0.1-0.1-0.3-0.1-0.6-0.1V4.6c0.2-0.1,0.5-0.2,1-0.4C26.7,4.1,27.1,4,27.4,4c0.2,0,0.3,0,0.4,0.1
	c0.1,0.1,0.1,0.2,0.1,0.4L27.9,9.1L27.9,9.1z M22.3,2.9c0-0.2-0.1-0.3-0.2-0.4c-0.1-0.1-0.3-0.2-0.6-0.2V1.8
	c0.3-0.2,0.6-0.3,1.1-0.4c0.4-0.1,0.8-0.2,1-0.2c0.2,0,0.3,0,0.4,0.1c0.1,0.1,0.1,0.2,0.1,0.4v7.4c0,0.2,0,0.4,0.1,0.5
	c0.1,0.1,0.3,0.1,0.5,0.1c0,0.2-0.1,0.4-0.3,0.6h-2.6c-0.2-0.2-0.3-0.4-0.3-0.6c0.2,0,0.4,0,0.5-0.1c0.1-0.1,0.2-0.3,0.2-0.5
	L22.3,2.9L22.3,2.9z M15.3,8.7c0-0.5,0.2-0.9,0.5-1.3C16.1,7.2,16.6,7,17.3,7c0.2,0,0.5,0,0.7,0.1c0.3,0,0.5,0.1,0.6,0.2V5.7
	c0-0.3-0.1-0.5-0.2-0.7c-0.2-0.1-0.4-0.2-0.6-0.2c-0.3,0-0.5,0.1-0.6,0.2c0.1,0,0.3,0.1,0.3,0.2c0.1,0.1,0.1,0.2,0.1,0.4
	c0,0.3-0.1,0.5-0.3,0.6c-0.2,0.2-0.4,0.2-0.7,0.2c-0.3,0-0.5-0.1-0.7-0.3c-0.2-0.2-0.3-0.4-0.3-0.7s0.1-0.5,0.3-0.8
	c0.2-0.2,0.5-0.4,0.9-0.6C17.2,4.1,17.7,4,18.2,4C19,4,19.6,4.1,20,4.5c0.4,0.3,0.6,0.8,0.6,1.4V9c0,0.4,0.2,0.6,0.5,0.7V10
	c-0.1,0.1-0.3,0.3-0.5,0.3c-0.2,0.1-0.5,0.1-0.7,0.1c-0.5,0-0.9-0.2-1.1-0.6c-0.2,0.2-0.4,0.3-0.7,0.4c-0.3,0.1-0.6,0.2-0.9,0.2
	c-0.6,0-1.1-0.2-1.4-0.5C15.4,9.7,15.3,9.3,15.3,8.7L15.3,8.7z M18.6,8.2c-0.1-0.1-0.2-0.1-0.3-0.1C18.2,8,18.1,8,18,8
	c-0.2,0-0.4,0.1-0.5,0.2c-0.1,0.1-0.2,0.3-0.2,0.6c0,0.2,0.1,0.4,0.2,0.5c0.1,0.1,0.3,0.2,0.6,0.2c0.1,0,0.2,0,0.3,0
	c0.1,0,0.2-0.1,0.3-0.1V8.2L18.6,8.2z M14.3,9c0,0.2,0,0.3,0.1,0.5c0.1,0.1,0.2,0.2,0.4,0.2V10c-0.1,0.1-0.3,0.3-0.6,0.3
	c-0.3,0.1-0.5,0.1-0.8,0.1c-0.3,0-0.5-0.1-0.7-0.2c-0.2-0.1-0.3-0.3-0.4-0.6c-0.4,0.5-0.9,0.8-1.6,0.8c-0.6,0-1-0.2-1.3-0.5
	C9.2,9.6,9,9.2,9,8.6V5.4C9,5.2,9,5.1,8.9,5.1C8.8,5,8.7,5,8.5,5V4.5c0.1-0.1,0.3-0.2,0.7-0.3c0.3-0.1,0.7-0.1,1.1-0.1
	c0.2,0,0.4,0,0.5,0c0.1,0,0.2,0.1,0.2,0.2C11,4.4,11,4.5,11,4.7v4c0,0.2,0,0.4,0.1,0.6c0.1,0.1,0.2,0.2,0.4,0.2c0.2,0,0.3,0,0.5-0.1
	c0.2-0.1,0.3-0.2,0.4-0.4V5.4c0-0.2-0.2-0.4-0.7-0.4V4.5c0.1-0.1,0.4-0.2,0.7-0.3c0.3-0.1,0.7-0.1,1.1-0.1c0.3,0,0.5,0,0.6,0.1
	c0.1,0.1,0.2,0.2,0.2,0.5L14.3,9L14.3,9z M2.9,6.3C2.9,7.6,3,8.5,3.2,9c0.3,0.5,0.6,0.7,1.1,0.7c0.4,0,0.8-0.2,1-0.7
	c0.3-0.5,0.4-1.4,0.4-2.7c0-1.2-0.1-2.1-0.4-2.6C5.1,3.2,4.8,2.9,4.3,2.9c-0.4,0-0.8,0.2-1.1,0.7C3,4.1,2.9,5,2.9,6.3L2.9,6.3z"/>
</svg>
