<?xml version="1.0" encoding="utf-8"?>
<!-- Generator: Adobe Illustrator 25.2.3, SVG Export Plug-In . SVG Version: 6.00 Build 0)  -->
<svg version="1.1" id="QualityWork_1_" xmlns="http://www.w3.org/2000/svg" xmlns:xlink="http://www.w3.org/1999/xlink" x="0px"
	 y="0px" viewBox="0 0 400 100" style="enable-background:new 0 0 400 100;" xml:space="preserve">
<style type="text/css">
	.st0{fill:#D09F0C;}
	.st1{fill-rule:evenodd;clip-rule:evenodd;fill:url(#Label_1_);}
</style>
<g id="UnderText">
	<path id="I_1_" class="st0" d="M139.6,80.8c-0.1-0.1-0.2-0.3-0.3-0.5c-0.1-0.2-0.1-0.4-0.1-0.6c0.4,0,0.6-0.1,0.7-0.2
		c0.1-0.1,0.2-0.3,0.2-0.6v-7.5c0-0.3-0.1-0.5-0.2-0.6c-0.1-0.1-0.4-0.2-0.7-0.2c0-0.2,0-0.4,0.1-0.5c0.1-0.2,0.1-0.3,0.3-0.5h3.9
		c0.1,0.1,0.2,0.3,0.3,0.5c0.1,0.2,0.1,0.4,0.1,0.5c-0.4,0-0.6,0.1-0.8,0.2c-0.1,0.1-0.2,0.3-0.2,0.6V79c0,0.3,0.1,0.5,0.2,0.6
		c0.1,0.1,0.4,0.2,0.8,0.2c0,0.2,0,0.4-0.1,0.6c-0.1,0.2-0.2,0.3-0.3,0.5H139.6z"/>
	<path id="N" class="st0" d="M153.8,80.4c-0.2,0.2-0.4,0.3-0.9,0.4c-0.4,0.1-0.8,0.1-1.2,0.1c-0.5,0-0.8-0.1-1-0.3
		c-0.2-0.2-0.3-0.4-0.3-0.8v-5c0-0.4-0.1-0.7-0.3-0.9c-0.2-0.2-0.4-0.3-0.7-0.3c-0.4,0-0.8,0.2-1.1,0.5v4.9c0,0.3,0.1,0.5,0.2,0.7
		c0.1,0.1,0.4,0.2,0.7,0.2c0,0.3-0.1,0.6-0.4,0.8h-3.6c-0.3-0.3-0.4-0.5-0.4-0.8c0.3,0,0.6-0.1,0.7-0.2c0.1-0.1,0.2-0.4,0.2-0.7
		v-4.7c0-0.3-0.1-0.5-0.2-0.6c-0.2-0.1-0.4-0.2-0.8-0.2v-0.7c0.3-0.2,0.8-0.4,1.4-0.5c0.6-0.2,1.1-0.2,1.4-0.2
		c0.2,0,0.4,0.1,0.6,0.2c0.1,0.1,0.2,0.4,0.2,0.9c0.3-0.3,0.6-0.6,1-0.8c0.4-0.2,0.9-0.3,1.4-0.3c0.8,0,1.3,0.2,1.7,0.6
		c0.4,0.4,0.6,1,0.6,1.9V79c0,0.5,0.3,0.8,0.8,0.9L153.8,80.4z"/>
	<path id="T_1_" class="st0" d="M160.9,73.8v4.5c0,0.3,0.1,0.5,0.2,0.7c0.1,0.1,0.3,0.2,0.5,0.2c0.2,0,0.4-0.1,0.6-0.2
		c0.2-0.1,0.4-0.2,0.5-0.4c0.1,0.1,0.2,0.2,0.2,0.4c0.1,0.2,0.1,0.3,0.1,0.5c0,0.2-0.1,0.5-0.3,0.7c-0.2,0.2-0.4,0.4-0.8,0.6
		c-0.3,0.1-0.8,0.2-1.2,0.2c-0.7,0-1.4-0.2-1.8-0.6c-0.4-0.4-0.7-1.1-0.7-2.1v-4.4h-1v-1c0.3,0,0.5-0.2,0.8-0.5
		c0.3-0.3,0.5-0.7,0.7-1.2c0.2-0.5,0.3-1,0.4-1.4c0.2,0,0.4,0,0.5,0c0.4,0,0.7,0.1,0.8,0.3c0.2,0.2,0.3,0.5,0.3,0.7v1.7h1.9
		c0,0.3,0,0.6,0,0.8c0,0.2-0.1,0.4-0.2,0.6H160.9z"/>
	<path id="H" class="st0" d="M172.5,80.4c-0.4,0.4-1,0.5-1.8,0.5c-1.1,0-1.6-0.3-1.6-1v-5.2c0-0.3-0.1-0.6-0.3-0.8
		c-0.2-0.2-0.4-0.3-0.8-0.3c-0.2,0-0.4,0.1-0.7,0.2c-0.2,0.1-0.4,0.3-0.5,0.5v4.7c0,0.3,0.1,0.5,0.2,0.7c0.1,0.1,0.4,0.2,0.7,0.2
		c0,0.3-0.1,0.6-0.4,0.9h-3.5c-0.2-0.2-0.4-0.5-0.4-0.9c0.3,0,0.5-0.1,0.7-0.2c0.1-0.1,0.2-0.4,0.2-0.7v-8.7c0-0.3-0.1-0.5-0.2-0.6
		c-0.2-0.1-0.4-0.2-0.8-0.2V69c0.4-0.2,0.9-0.4,1.5-0.5c0.6-0.2,1.1-0.2,1.4-0.2c0.2,0,0.4,0.1,0.5,0.2c0.1,0.1,0.2,0.3,0.2,0.6v3.2
		l0,1.3c0.3-0.4,0.6-0.7,1.1-0.9c0.4-0.2,0.9-0.4,1.5-0.4c0.7,0,1.3,0.2,1.7,0.6c0.4,0.4,0.6,1,0.6,1.8V79c0,0.3,0.1,0.5,0.2,0.6
		c0.1,0.2,0.3,0.3,0.6,0.3L172.5,80.4z"/>
	<path id="E" class="st0" d="M177.9,79.2c0.7,0,1.3-0.2,1.9-0.6c0.1,0.1,0.2,0.2,0.2,0.4c0.1,0.2,0.1,0.3,0.1,0.4
		c0,0.2-0.1,0.4-0.4,0.7c-0.3,0.2-0.6,0.5-1.1,0.6c-0.4,0.2-1,0.3-1.5,0.3c-0.8,0-1.5-0.2-2.1-0.5c-0.6-0.3-1-0.8-1.4-1.5
		c-0.3-0.7-0.5-1.4-0.5-2.3c0-0.9,0.2-1.7,0.5-2.4c0.4-0.7,0.8-1.2,1.4-1.6c0.6-0.4,1.3-0.6,2.1-0.6c1,0,1.7,0.3,2.3,0.8
		c0.6,0.6,0.9,1.3,0.9,2.4c0,0.5-0.1,0.8-0.2,1.1c-0.1,0.3-0.4,0.4-0.8,0.4h-3.5C176,78.4,176.7,79.2,177.9,79.2z M177.1,73.3
		c-0.3,0-0.6,0.2-0.8,0.6c-0.2,0.4-0.3,1-0.4,1.8h1.6c0.2,0,0.3-0.1,0.3-0.2c0.1-0.1,0.1-0.3,0.1-0.5c0-0.6-0.1-1.1-0.2-1.3
		C177.6,73.4,177.4,73.3,177.1,73.3z"/>
	<path id="R_1_" class="st0" d="M189.8,72.2c0.5,0,0.8,0.1,1.1,0.4c0.2,0.2,0.3,0.6,0.3,1c0,0.5-0.1,0.8-0.4,1.1
		c-0.2,0.3-0.6,0.4-1,0.4c-0.4,0-0.6-0.1-0.9-0.3c-0.2-0.2-0.3-0.4-0.3-0.7c0-0.2,0-0.3,0-0.4c-0.4,0.1-0.7,0.3-1,0.5V79
		c0,0.3,0,0.5,0.1,0.6c0.1,0.1,0.2,0.2,0.4,0.3c0.2,0.1,0.6,0.1,1,0.1c0,0.2,0,0.4-0.1,0.5c0,0.1-0.1,0.3-0.2,0.4h-4.3
		c-0.2-0.2-0.4-0.5-0.4-0.9c0.3,0,0.5-0.1,0.7-0.2c0.1-0.1,0.2-0.4,0.2-0.7v-4.6c0-0.3-0.1-0.5-0.2-0.6c-0.1-0.1-0.4-0.2-0.8-0.2V73
		c0.4-0.2,0.8-0.4,1.4-0.5c0.6-0.2,1-0.2,1.4-0.2c0.3,0,0.4,0.1,0.5,0.3c0.1,0.2,0.2,0.5,0.2,1.1c0.2-0.4,0.5-0.7,0.9-1
		S189.3,72.2,189.8,72.2z"/>
	<path id="I_2_" class="st0" d="M195.2,69.5c0,0.5-0.1,0.8-0.4,1.1c-0.3,0.3-0.7,0.4-1.1,0.4c-0.5,0-0.8-0.1-1.1-0.4
		c-0.3-0.3-0.4-0.6-0.4-1.1c0-0.4,0.1-0.8,0.4-1.1c0.3-0.3,0.7-0.4,1.1-0.4s0.8,0.1,1.1,0.4C195.1,68.7,195.2,69.1,195.2,69.5z
		 M194.9,79.1c0,0.3,0.1,0.5,0.2,0.7c0.2,0.1,0.4,0.2,0.7,0.2c0,0.3-0.1,0.6-0.4,0.9h-3.6c-0.2-0.2-0.4-0.5-0.4-0.9
		c0.3,0,0.5-0.1,0.7-0.2c0.1-0.1,0.2-0.4,0.2-0.7v-4.6c0-0.3-0.1-0.5-0.2-0.6c-0.1-0.1-0.4-0.2-0.8-0.2v-0.7
		c0.3-0.2,0.7-0.3,1.3-0.5c0.6-0.2,1.1-0.3,1.6-0.3c0.2,0,0.4,0.1,0.5,0.2c0.1,0.1,0.2,0.3,0.2,0.6V79.1z"/>
	<path id="G" class="st0" d="M200.4,78.9c1.4,0.1,2.4,0.3,3.1,0.8c0.7,0.4,1,1,1,1.8c0,0.5-0.2,1-0.6,1.5c-0.4,0.5-0.9,0.8-1.6,1.1
		c-0.7,0.3-1.4,0.4-2.1,0.4c-1.3,0-2.2-0.2-2.8-0.7c-0.6-0.4-0.9-1.1-0.9-1.8c0-0.4,0.1-0.8,0.4-1.1c0.3-0.3,0.6-0.6,1.1-0.7
		c-0.2-0.1-0.4-0.3-0.4-0.5c-0.1-0.2-0.1-0.5-0.1-0.8c0-0.2,0.1-0.4,0.2-0.6c0.1-0.2,0.4-0.4,0.6-0.4c-0.5-0.3-0.9-0.6-1.2-1.1
		c-0.3-0.5-0.4-1-0.4-1.5c0-0.6,0.1-1.1,0.4-1.5c0.3-0.4,0.7-0.8,1.2-1.1c0.5-0.3,1.2-0.4,1.9-0.4h0c0.4,0,0.7,0,1,0.1
		c1,0,1.7,0,2.1,0c0.4,0,0.8-0.1,1.1-0.1c0.1,0,0.2,0.1,0.2,0.2c0.1,0.1,0.1,0.3,0.1,0.4c0,0.5-0.2,0.7-0.6,0.7
		c-0.1,0-0.4-0.1-0.9-0.3c-0.1,0-0.2-0.1-0.4-0.2c0.4,0.3,0.6,0.6,0.8,1c0.2,0.4,0.3,0.7,0.3,1.1c0,1-0.3,1.8-1,2.3
		c-0.7,0.5-1.6,0.8-2.8,0.8c-0.3,0-0.6,0-1-0.1v0c0,0.3,0.1,0.4,0.3,0.6C199.5,78.8,199.9,78.9,200.4,78.9z M200.3,73.3
		c-0.3,0-0.6,0.2-0.7,0.5c-0.1,0.4-0.2,0.9-0.2,1.5c0,1.2,0.3,1.8,0.9,1.8c0.3,0,0.6-0.2,0.7-0.5c0.1-0.4,0.2-0.9,0.2-1.7
		c0-0.6-0.1-1-0.2-1.3C200.8,73.4,200.6,73.3,200.3,73.3z M200.7,83.1c0.5,0,0.9-0.1,1.1-0.4c0.2-0.2,0.4-0.5,0.4-0.9
		c0-0.3-0.2-0.6-0.6-0.7c-0.4-0.1-1-0.3-1.8-0.4l-0.7-0.1c-0.1,0.2-0.2,0.5-0.2,0.9c0,0.5,0.2,0.9,0.4,1.2
		C199.5,83,200,83.1,200.7,83.1z"/>
	<path id="H_1_" class="st0" d="M213.9,80.4c-0.4,0.4-1,0.5-1.8,0.5c-1.1,0-1.6-0.3-1.6-1v-5.2c0-0.3-0.1-0.6-0.3-0.8
		c-0.2-0.2-0.4-0.3-0.8-0.3c-0.2,0-0.4,0.1-0.7,0.2c-0.2,0.1-0.4,0.3-0.5,0.5v4.7c0,0.3,0.1,0.5,0.2,0.7c0.1,0.1,0.4,0.2,0.7,0.2
		c0,0.3-0.1,0.6-0.4,0.9h-3.5c-0.2-0.2-0.4-0.5-0.4-0.9c0.3,0,0.5-0.1,0.7-0.2c0.1-0.1,0.2-0.4,0.2-0.7v-8.7c0-0.3-0.1-0.5-0.2-0.6
		c-0.1-0.1-0.4-0.2-0.8-0.2V69c0.4-0.2,0.9-0.4,1.5-0.5c0.6-0.2,1.1-0.2,1.4-0.2c0.2,0,0.4,0.1,0.5,0.2c0.1,0.1,0.2,0.3,0.2,0.6v3.2
		l0,1.3c0.3-0.4,0.7-0.7,1.1-0.9c0.4-0.2,0.9-0.4,1.5-0.4c0.7,0,1.3,0.2,1.7,0.6c0.4,0.4,0.6,1,0.6,1.8V79c0,0.3,0.1,0.5,0.2,0.6
		c0.1,0.2,0.3,0.3,0.6,0.3L213.9,80.4z"/>
	<path id="T_2_" class="st0" d="M217.9,73.8v4.5c0,0.3,0.1,0.5,0.2,0.7c0.1,0.1,0.3,0.2,0.5,0.2c0.2,0,0.4-0.1,0.6-0.2
		c0.2-0.1,0.4-0.2,0.5-0.4c0.1,0.1,0.2,0.2,0.2,0.4c0.1,0.2,0.1,0.3,0.1,0.5c0,0.2-0.1,0.5-0.3,0.7c-0.2,0.2-0.4,0.4-0.8,0.6
		c-0.3,0.1-0.8,0.2-1.2,0.2c-0.7,0-1.3-0.2-1.8-0.6c-0.4-0.4-0.7-1.1-0.7-2.1v-4.4h-1v-1c0.3,0,0.5-0.2,0.8-0.5
		c0.3-0.3,0.5-0.7,0.7-1.2c0.2-0.5,0.3-1,0.4-1.4c0.2,0,0.4,0,0.5,0c0.4,0,0.7,0.1,0.8,0.3c0.2,0.2,0.3,0.5,0.3,0.7v1.7h1.9
		c0,0.3,0,0.6,0,0.8c0,0.2-0.1,0.4-0.2,0.6H217.9z"/>
	<path id="P" class="st0" d="M227.6,81c-0.1,0-0.3,0-0.6,0v1.2c0,0.3,0.1,0.5,0.3,0.7c0.2,0.1,0.5,0.2,0.7,0.2
		c0,0.3-0.1,0.6-0.4,0.8h-3.5c-0.3-0.3-0.4-0.5-0.4-0.8c0.3,0,0.5-0.1,0.6-0.2c0.1-0.1,0.1-0.4,0.1-0.7v-7.7c0-0.3-0.1-0.5-0.2-0.6
		c-0.2-0.1-0.4-0.2-0.8-0.2V73c0.3-0.2,0.8-0.4,1.3-0.5c0.5-0.2,0.9-0.2,1.2-0.2c0.2,0,0.4,0,0.5,0.1c0.1,0.1,0.2,0.3,0.3,0.5
		c0.4-0.4,1.1-0.6,1.9-0.6c0.6,0,1.1,0.1,1.6,0.4c0.5,0.3,0.9,0.8,1.2,1.4c0.3,0.6,0.4,1.3,0.4,2.2c0,1-0.2,1.9-0.6,2.6
		c-0.4,0.7-0.9,1.3-1.6,1.7C229.1,80.8,228.4,81,227.6,81z M229.1,76.6c0-1-0.2-1.8-0.5-2.3c-0.3-0.5-0.7-0.7-1.3-0.7
		c-0.2,0-0.3,0-0.4,0.1v6c0.2,0.1,0.4,0.2,0.6,0.2c0.5,0,0.8-0.3,1.1-0.8C229,78.5,229.1,77.7,229.1,76.6z"/>
	<path id="L_1_" class="st0" d="M233.7,70.6c0-0.3-0.1-0.5-0.2-0.6c-0.1-0.1-0.4-0.2-0.8-0.2v-0.6c0.4-0.2,0.9-0.4,1.5-0.5
		c0.6-0.1,1.1-0.2,1.4-0.2c0.3,0,0.4,0.1,0.5,0.2c0.1,0.1,0.2,0.3,0.2,0.6v10c0,0.3,0.1,0.6,0.2,0.7c0.1,0.1,0.4,0.2,0.7,0.2
		c0,0.3-0.1,0.6-0.4,0.9h-3.5c-0.2-0.3-0.4-0.6-0.4-0.9c0.3,0,0.5-0.1,0.7-0.2c0.1-0.1,0.2-0.4,0.2-0.7V70.6z"/>
	<path id="A_1_" class="st0" d="M237.8,78.6c0-0.7,0.2-1.3,0.7-1.7c0.5-0.4,1.2-0.6,2.1-0.6c0.3,0,0.6,0,1,0.1
		c0.3,0.1,0.6,0.1,0.8,0.3v-2.1c0-0.4-0.1-0.7-0.3-0.9c-0.2-0.2-0.5-0.3-0.9-0.3c-0.4,0-0.6,0.1-0.9,0.3c0.2,0.1,0.4,0.2,0.4,0.3
		c0.1,0.1,0.2,0.3,0.2,0.5c0,0.3-0.1,0.6-0.4,0.8c-0.2,0.2-0.6,0.3-0.9,0.3c-0.4,0-0.7-0.1-1-0.4c-0.2-0.2-0.4-0.5-0.4-0.9
		c0-0.4,0.1-0.7,0.4-1.1c0.3-0.3,0.6-0.6,1.2-0.8c0.5-0.2,1.2-0.3,2-0.3c1.1,0,1.9,0.2,2.4,0.7c0.5,0.4,0.8,1.1,0.8,1.9v4.2
		c0,0.5,0.2,0.8,0.7,0.9v0.5c-0.1,0.2-0.4,0.3-0.7,0.4c-0.3,0.1-0.6,0.2-1,0.2c-0.7,0-1.2-0.3-1.5-0.8c-0.2,0.2-0.5,0.4-0.9,0.5
		c-0.4,0.1-0.8,0.2-1.2,0.2c-0.8,0-1.4-0.2-2-0.7C238.1,79.9,237.8,79.3,237.8,78.6z M242.4,77.9c-0.1-0.1-0.3-0.1-0.4-0.2
		c-0.2-0.1-0.3-0.1-0.5-0.1c-0.3,0-0.5,0.1-0.7,0.3c-0.2,0.2-0.3,0.4-0.3,0.8c0,0.3,0.1,0.5,0.3,0.7c0.2,0.2,0.4,0.3,0.8,0.3
		c0.2,0,0.3,0,0.5-0.1c0.2-0.1,0.3-0.1,0.4-0.2V77.9z"/>
	<path id="C" class="st0" d="M252.8,78.8c0.1,0.1,0.2,0.2,0.2,0.4c0.1,0.2,0.1,0.3,0.1,0.4c0,0.2-0.1,0.5-0.4,0.7
		c-0.2,0.2-0.6,0.4-1,0.6c-0.4,0.1-0.8,0.2-1.3,0.2c-0.8,0-1.5-0.2-2.1-0.5c-0.6-0.4-1.1-0.9-1.4-1.5c-0.3-0.7-0.5-1.4-0.5-2.4
		c0-0.9,0.2-1.7,0.5-2.4c0.4-0.7,0.9-1.2,1.5-1.6c0.6-0.4,1.4-0.5,2.1-0.5c0.8,0,1.4,0.2,1.8,0.6c0.4,0.4,0.7,0.9,0.7,1.4
		c0,0.5-0.1,0.9-0.4,1.2c-0.3,0.3-0.6,0.4-1,0.4c-0.3,0-0.6-0.1-0.8-0.4c-0.2-0.2-0.3-0.5-0.3-0.9c0-0.2,0-0.4,0.1-0.6
		c0.1-0.2,0.2-0.3,0.4-0.4c-0.2-0.1-0.3-0.1-0.5-0.1c-0.4,0-0.7,0.2-1,0.7c-0.3,0.4-0.4,1.1-0.4,2.1c0,1.1,0.2,1.9,0.5,2.4
		c0.3,0.5,0.8,0.7,1.5,0.7c0.3,0,0.6,0,0.9-0.1C252.4,79.1,252.6,79,252.8,78.8z"/>
	<path id="E_1_" class="st0" d="M258.6,79.2c0.7,0,1.3-0.2,1.9-0.6c0.1,0.1,0.2,0.2,0.2,0.4c0.1,0.2,0.1,0.3,0.1,0.4
		c0,0.2-0.1,0.4-0.4,0.7c-0.3,0.2-0.6,0.5-1.1,0.6c-0.4,0.2-1,0.3-1.5,0.3c-0.8,0-1.5-0.2-2.1-0.5c-0.6-0.3-1-0.8-1.4-1.5
		c-0.3-0.7-0.5-1.4-0.5-2.3c0-0.9,0.2-1.7,0.5-2.4c0.4-0.7,0.8-1.2,1.4-1.6c0.6-0.4,1.3-0.6,2.1-0.6c1,0,1.7,0.3,2.3,0.8
		c0.6,0.6,0.9,1.3,0.9,2.4c0,0.5-0.1,0.8-0.2,1.1c-0.1,0.3-0.4,0.4-0.8,0.4h-3.5C256.6,78.4,257.3,79.2,258.6,79.2z M257.8,73.3
		c-0.3,0-0.6,0.2-0.8,0.6c-0.2,0.4-0.3,1-0.4,1.8h1.6c0.2,0,0.3-0.1,0.3-0.2c0.1-0.1,0.1-0.3,0.1-0.5c0-0.6-0.1-1.1-0.2-1.3
		C258.2,73.4,258,73.3,257.8,73.3z"/>
	<path id="A_2_" class="st0" d="M264.9,78.6c0-0.7,0.2-1.3,0.7-1.7s1.2-0.6,2.1-0.6c0.3,0,0.6,0,1,0.1c0.3,0.1,0.6,0.1,0.8,0.3v-2.1
		c0-0.4-0.1-0.7-0.3-0.9c-0.2-0.2-0.5-0.3-0.9-0.3c-0.4,0-0.6,0.1-0.9,0.3c0.2,0.1,0.4,0.2,0.4,0.3c0.1,0.1,0.2,0.3,0.2,0.5
		c0,0.3-0.1,0.6-0.4,0.8c-0.2,0.2-0.6,0.3-0.9,0.3c-0.4,0-0.7-0.1-1-0.4c-0.2-0.2-0.4-0.5-0.4-0.9c0-0.4,0.1-0.7,0.4-1.1
		c0.3-0.3,0.6-0.6,1.2-0.8c0.5-0.2,1.2-0.3,2-0.3c1.1,0,1.9,0.2,2.4,0.7c0.5,0.4,0.8,1.1,0.8,1.9v4.2c0,0.5,0.2,0.8,0.7,0.9v0.5
		c-0.1,0.2-0.4,0.3-0.7,0.4c-0.3,0.1-0.6,0.2-1,0.2c-0.7,0-1.2-0.3-1.5-0.8c-0.2,0.2-0.5,0.4-0.9,0.5c-0.4,0.1-0.8,0.2-1.2,0.2
		c-0.8,0-1.5-0.2-2-0.7C265.1,79.9,264.9,79.3,264.9,78.6z M269.5,77.9c-0.1-0.1-0.3-0.1-0.4-0.2c-0.2-0.1-0.3-0.1-0.5-0.1
		c-0.3,0-0.5,0.1-0.7,0.3c-0.2,0.2-0.3,0.4-0.3,0.8c0,0.3,0.1,0.5,0.3,0.7c0.2,0.2,0.4,0.3,0.8,0.3c0.2,0,0.3,0,0.5-0.1
		c0.2-0.1,0.3-0.1,0.4-0.2V77.9z"/>
	<path id="T_3_" class="st0" d="M276.8,73.8v4.5c0,0.3,0.1,0.5,0.2,0.7c0.1,0.1,0.3,0.2,0.5,0.2c0.2,0,0.4-0.1,0.6-0.2
		c0.2-0.1,0.4-0.2,0.5-0.4c0.1,0.1,0.2,0.2,0.2,0.4c0.1,0.2,0.1,0.3,0.1,0.5c0,0.2-0.1,0.5-0.3,0.7c-0.2,0.2-0.4,0.4-0.8,0.6
		c-0.3,0.1-0.8,0.2-1.2,0.2c-0.7,0-1.4-0.2-1.8-0.6c-0.4-0.4-0.7-1.1-0.7-2.1v-4.4h-1v-1c0.3,0,0.5-0.2,0.8-0.5
		c0.3-0.3,0.5-0.7,0.7-1.2c0.2-0.5,0.3-1,0.4-1.4c0.2,0,0.4,0,0.5,0c0.4,0,0.7,0.1,0.8,0.3c0.2,0.2,0.3,0.5,0.3,0.7v1.7h1.9
		c0,0.3,0,0.6,0,0.8c0,0.2-0.1,0.4-0.2,0.6H276.8z"/>
	<path id="T_4_" class="st0" d="M285.9,73.8v4.5c0,0.3,0.1,0.5,0.2,0.7c0.1,0.1,0.3,0.2,0.5,0.2c0.2,0,0.4-0.1,0.6-0.2
		c0.2-0.1,0.4-0.2,0.5-0.4c0.1,0.1,0.2,0.2,0.2,0.4c0.1,0.2,0.1,0.3,0.1,0.5c0,0.2-0.1,0.5-0.3,0.7c-0.2,0.2-0.4,0.4-0.8,0.6
		c-0.3,0.1-0.8,0.2-1.2,0.2c-0.7,0-1.3-0.2-1.8-0.6c-0.4-0.4-0.7-1.1-0.7-2.1v-4.4h-1v-1c0.3,0,0.5-0.2,0.8-0.5
		c0.3-0.3,0.5-0.7,0.7-1.2c0.2-0.5,0.3-1,0.4-1.4c0.2,0,0.4,0,0.5,0c0.4,0,0.7,0.1,0.8,0.3c0.2,0.2,0.3,0.5,0.3,0.7v1.7h1.9
		c0,0.3,0,0.6,0,0.8c0,0.2-0.1,0.4-0.2,0.6H285.9z"/>
	<path id="H_2_" class="st0" d="M297.5,80.4c-0.4,0.4-1,0.5-1.8,0.5c-1.1,0-1.6-0.3-1.6-1v-5.2c0-0.3-0.1-0.6-0.3-0.8
		c-0.2-0.2-0.4-0.3-0.8-0.3c-0.2,0-0.4,0.1-0.7,0.2c-0.2,0.1-0.4,0.3-0.5,0.5v4.7c0,0.3,0.1,0.5,0.2,0.7c0.1,0.1,0.4,0.2,0.7,0.2
		c0,0.3-0.1,0.6-0.4,0.9h-3.5c-0.2-0.2-0.4-0.5-0.4-0.9c0.3,0,0.5-0.1,0.7-0.2c0.1-0.1,0.2-0.4,0.2-0.7v-8.7c0-0.3-0.1-0.5-0.2-0.6
		c-0.1-0.1-0.4-0.2-0.8-0.2V69c0.4-0.2,0.9-0.4,1.5-0.5c0.6-0.2,1.1-0.2,1.4-0.2c0.2,0,0.4,0.1,0.5,0.2c0.1,0.1,0.2,0.3,0.2,0.6v3.2
		l0,1.3c0.3-0.4,0.7-0.7,1.1-0.9c0.4-0.2,0.9-0.4,1.5-0.4c0.7,0,1.3,0.2,1.7,0.6c0.4,0.4,0.6,1,0.6,1.8V79c0,0.3,0.1,0.5,0.2,0.6
		c0.1,0.2,0.3,0.3,0.6,0.3L297.5,80.4z"/>
	<path id="E_2_" class="st0" d="M303,79.2c0.7,0,1.3-0.2,1.9-0.6c0.1,0.1,0.2,0.2,0.2,0.4c0.1,0.2,0.1,0.3,0.1,0.4
		c0,0.2-0.1,0.4-0.4,0.7c-0.3,0.2-0.6,0.5-1.1,0.6c-0.4,0.2-1,0.3-1.5,0.3c-0.8,0-1.5-0.2-2.1-0.5c-0.6-0.3-1-0.8-1.4-1.5
		c-0.3-0.7-0.5-1.4-0.5-2.3c0-0.9,0.2-1.7,0.5-2.4c0.4-0.7,0.8-1.2,1.4-1.6c0.6-0.4,1.3-0.6,2.1-0.6c1,0,1.7,0.3,2.3,0.8
		c0.6,0.6,0.9,1.3,0.9,2.4c0,0.5-0.1,0.8-0.2,1.1c-0.1,0.3-0.4,0.4-0.8,0.4H301C301,78.4,301.7,79.2,303,79.2z M302.2,73.3
		c-0.3,0-0.6,0.2-0.8,0.6c-0.2,0.4-0.3,1-0.4,1.8h1.6c0.2,0,0.3-0.1,0.3-0.2c0.1-0.1,0.1-0.3,0.1-0.5c0-0.6-0.1-1.1-0.2-1.3
		C302.6,73.4,302.4,73.3,302.2,73.3z"/>
	<path id="R_2_" class="st0" d="M314.8,72.2c0.5,0,0.8,0.1,1.1,0.4c0.2,0.2,0.3,0.6,0.3,1c0,0.5-0.1,0.8-0.4,1.1
		c-0.2,0.3-0.6,0.4-1,0.4c-0.4,0-0.6-0.1-0.9-0.3c-0.2-0.2-0.3-0.4-0.3-0.7c0-0.2,0-0.3,0-0.4c-0.4,0.1-0.7,0.3-1,0.5V79
		c0,0.3,0,0.5,0.1,0.6c0.1,0.1,0.2,0.2,0.4,0.3c0.2,0.1,0.6,0.1,1,0.1c0,0.2,0,0.4-0.1,0.5c0,0.1-0.1,0.3-0.2,0.4h-4.3
		c-0.2-0.2-0.4-0.5-0.4-0.9c0.3,0,0.5-0.1,0.7-0.2c0.1-0.1,0.2-0.4,0.2-0.7v-4.6c0-0.3-0.1-0.5-0.2-0.6c-0.1-0.1-0.4-0.2-0.8-0.2V73
		c0.4-0.2,0.8-0.4,1.4-0.5c0.6-0.2,1-0.2,1.4-0.2c0.3,0,0.4,0.1,0.5,0.3c0.1,0.2,0.2,0.5,0.2,1.1c0.2-0.4,0.5-0.7,0.9-1
		C313.9,72.3,314.4,72.2,314.8,72.2z"/>
	<path id="I_3_" class="st0" d="M320.2,69.5c0,0.5-0.1,0.8-0.4,1.1c-0.3,0.3-0.6,0.4-1.1,0.4c-0.5,0-0.8-0.1-1.1-0.4
		c-0.3-0.3-0.4-0.6-0.4-1.1c0-0.4,0.1-0.8,0.4-1.1c0.3-0.3,0.7-0.4,1.1-0.4c0.5,0,0.8,0.1,1.1,0.4C320.1,68.7,320.2,69.1,320.2,69.5
		z M319.9,79.1c0,0.3,0.1,0.5,0.2,0.7c0.2,0.1,0.4,0.2,0.7,0.2c0,0.3-0.1,0.6-0.4,0.9h-3.6c-0.2-0.2-0.4-0.5-0.4-0.9
		c0.3,0,0.5-0.1,0.7-0.2c0.1-0.1,0.2-0.4,0.2-0.7v-4.6c0-0.3-0.1-0.5-0.2-0.6c-0.1-0.1-0.4-0.2-0.8-0.2v-0.7
		c0.3-0.2,0.7-0.3,1.3-0.5c0.6-0.2,1.1-0.3,1.6-0.3c0.2,0,0.4,0.1,0.5,0.2c0.1,0.1,0.2,0.3,0.2,0.6V79.1z"/>
	<path id="G_1_" class="st0" d="M325.4,78.9c1.4,0.1,2.4,0.3,3.1,0.8c0.7,0.4,1,1,1,1.8c0,0.5-0.2,1-0.6,1.5
		c-0.4,0.5-0.9,0.8-1.6,1.1c-0.7,0.3-1.4,0.4-2.1,0.4c-1.3,0-2.2-0.2-2.8-0.7c-0.6-0.4-0.9-1.1-0.9-1.8c0-0.4,0.1-0.8,0.4-1.1
		c0.3-0.3,0.6-0.6,1.1-0.7c-0.2-0.1-0.4-0.3-0.4-0.5c-0.1-0.2-0.1-0.5-0.1-0.8c0-0.2,0.1-0.4,0.2-0.6c0.1-0.2,0.4-0.4,0.6-0.4
		c-0.5-0.3-0.9-0.6-1.2-1.1c-0.3-0.5-0.4-1-0.4-1.5c0-0.6,0.1-1.1,0.4-1.5c0.3-0.4,0.7-0.8,1.2-1.1c0.5-0.3,1.2-0.4,1.9-0.4h0
		c0.4,0,0.7,0,1,0.1c1,0,1.7,0,2.1,0c0.4,0,0.8-0.1,1.1-0.1c0.1,0,0.2,0.1,0.2,0.2c0.1,0.1,0.1,0.3,0.1,0.4c0,0.5-0.2,0.7-0.6,0.7
		c-0.1,0-0.4-0.1-0.9-0.3c-0.1,0-0.2-0.1-0.4-0.2c0.4,0.3,0.6,0.6,0.8,1c0.2,0.4,0.3,0.7,0.3,1.1c0,1-0.3,1.8-1,2.3
		c-0.7,0.5-1.6,0.8-2.8,0.8c-0.3,0-0.6,0-1-0.1v0c0,0.3,0.1,0.4,0.3,0.6C324.5,78.8,324.9,78.9,325.4,78.9z M325.3,73.3
		c-0.3,0-0.6,0.2-0.7,0.5c-0.1,0.4-0.2,0.9-0.2,1.5c0,1.2,0.3,1.8,0.9,1.8c0.3,0,0.6-0.2,0.7-0.5c0.1-0.4,0.2-0.9,0.2-1.7
		c0-0.6-0.1-1-0.2-1.3C325.9,73.4,325.6,73.3,325.3,73.3z M325.7,83.1c0.5,0,0.9-0.1,1.1-0.4c0.2-0.2,0.4-0.5,0.4-0.9
		c0-0.3-0.2-0.6-0.6-0.7c-0.4-0.1-1-0.3-1.8-0.4l-0.7-0.1c-0.1,0.2-0.2,0.5-0.2,0.9c0,0.5,0.1,0.9,0.4,1.2
		C324.5,83,325,83.1,325.7,83.1z"/>
	<path id="H_3_" class="st0" d="M338.9,80.4c-0.4,0.4-1,0.5-1.8,0.5c-1.1,0-1.6-0.3-1.6-1v-5.2c0-0.3-0.1-0.6-0.3-0.8
		c-0.2-0.2-0.4-0.3-0.8-0.3c-0.2,0-0.4,0.1-0.7,0.2c-0.2,0.1-0.4,0.3-0.5,0.5v4.7c0,0.3,0.1,0.5,0.2,0.7c0.1,0.1,0.4,0.2,0.7,0.2
		c0,0.3-0.1,0.6-0.4,0.9h-3.5c-0.2-0.2-0.4-0.5-0.4-0.9c0.3,0,0.5-0.1,0.7-0.2c0.1-0.1,0.2-0.4,0.2-0.7v-8.7c0-0.3-0.1-0.5-0.2-0.6
		c-0.1-0.1-0.4-0.2-0.8-0.2V69c0.4-0.2,0.9-0.4,1.5-0.5c0.6-0.2,1.1-0.2,1.4-0.2c0.2,0,0.4,0.1,0.5,0.2c0.1,0.1,0.2,0.3,0.2,0.6v3.2
		l0,1.3c0.3-0.4,0.7-0.7,1.1-0.9c0.4-0.2,0.9-0.4,1.5-0.4c0.7,0,1.3,0.2,1.7,0.6c0.4,0.4,0.6,1,0.6,1.8V79c0,0.3,0.1,0.5,0.2,0.6
		c0.1,0.2,0.3,0.3,0.6,0.3L338.9,80.4z"/>
	<path id="T_5_" class="st0" d="M342.9,73.8v4.5c0,0.3,0.1,0.5,0.2,0.7c0.1,0.1,0.3,0.2,0.5,0.2c0.2,0,0.4-0.1,0.6-0.2
		c0.2-0.1,0.4-0.2,0.5-0.4c0.1,0.1,0.2,0.2,0.2,0.4c0.1,0.2,0.1,0.3,0.1,0.5c0,0.2-0.1,0.5-0.3,0.7c-0.2,0.2-0.4,0.4-0.8,0.6
		c-0.3,0.1-0.8,0.2-1.2,0.2c-0.7,0-1.3-0.2-1.8-0.6c-0.4-0.4-0.7-1.1-0.7-2.1v-4.4h-1v-1c0.3,0,0.5-0.2,0.8-0.5
		c0.3-0.3,0.5-0.7,0.7-1.2c0.2-0.5,0.3-1,0.4-1.4c0.2,0,0.4,0,0.5,0c0.4,0,0.7,0.1,0.8,0.3c0.2,0.2,0.3,0.5,0.3,0.7v1.7h1.9
		c0,0.3,0,0.6,0,0.8c0,0.2-0.1,0.4-0.2,0.6H342.9z"/>
	<path id="T_6_" class="st0" d="M352,73.8v4.5c0,0.3,0.1,0.5,0.2,0.7c0.1,0.1,0.3,0.2,0.5,0.2c0.2,0,0.4-0.1,0.6-0.2
		c0.2-0.1,0.4-0.2,0.5-0.4c0.1,0.1,0.2,0.2,0.2,0.4c0.1,0.2,0.1,0.3,0.1,0.5c0,0.2-0.1,0.5-0.3,0.7c-0.2,0.2-0.4,0.4-0.8,0.6
		c-0.3,0.1-0.8,0.2-1.2,0.2c-0.7,0-1.4-0.2-1.8-0.6c-0.4-0.4-0.7-1.1-0.7-2.1v-4.4h-1v-1c0.3,0,0.5-0.2,0.8-0.5
		c0.3-0.3,0.5-0.7,0.7-1.2c0.2-0.5,0.3-1,0.4-1.4c0.2,0,0.4,0,0.5,0c0.4,0,0.7,0.1,0.8,0.3c0.2,0.2,0.3,0.5,0.3,0.7v1.7h1.9
		c0,0.3,0,0.6,0,0.8c0,0.2-0.1,0.4-0.2,0.6H352z"/>
	<path id="I_4_" class="st0" d="M358.4,69.5c0,0.5-0.1,0.8-0.4,1.1c-0.3,0.3-0.7,0.4-1.1,0.4c-0.5,0-0.8-0.1-1.1-0.4
		c-0.3-0.3-0.4-0.6-0.4-1.1c0-0.4,0.1-0.8,0.4-1.1c0.3-0.3,0.7-0.4,1.1-0.4c0.5,0,0.8,0.1,1.1,0.4C358.3,68.7,358.4,69.1,358.4,69.5
		z M358.1,79.1c0,0.3,0.1,0.5,0.2,0.7c0.2,0.1,0.4,0.2,0.7,0.2c0,0.3-0.1,0.6-0.4,0.9h-3.6c-0.2-0.2-0.4-0.5-0.4-0.9
		c0.3,0,0.5-0.1,0.7-0.2c0.1-0.1,0.2-0.4,0.2-0.7v-4.6c0-0.3-0.1-0.5-0.2-0.6c-0.1-0.1-0.4-0.2-0.8-0.2v-0.7
		c0.3-0.2,0.7-0.3,1.3-0.5c0.6-0.2,1.1-0.3,1.6-0.3c0.2,0,0.4,0.1,0.5,0.2c0.1,0.1,0.2,0.3,0.2,0.6V79.1z"/>
	<path id="M" class="st0" d="M372.7,79.1c0,0.5,0.3,0.7,0.8,0.8v0.5c-0.4,0.4-1.1,0.5-2,0.5c-0.4,0-0.8-0.1-1.1-0.2
		c-0.3-0.1-0.4-0.3-0.4-0.7v-5.3c0-0.3-0.1-0.6-0.3-0.8c-0.2-0.2-0.4-0.3-0.7-0.3c-0.4,0-0.7,0.1-1,0.4c0,0.1,0,0.1,0,0.2v4.8
		c0,0.3,0.1,0.5,0.2,0.7c0.1,0.1,0.3,0.2,0.6,0.2c0,0.3-0.1,0.6-0.4,0.9h-3.4c-0.2-0.3-0.4-0.6-0.4-0.9c0.3,0,0.5-0.1,0.6-0.2
		c0.1-0.1,0.2-0.4,0.2-0.7v-4.3c0-0.3-0.1-0.6-0.3-0.8c-0.2-0.2-0.4-0.3-0.7-0.3c-0.2,0-0.4,0.1-0.6,0.2c-0.2,0.1-0.4,0.2-0.5,0.4
		v4.8c0,0.3,0.1,0.5,0.2,0.7c0.1,0.1,0.3,0.2,0.6,0.2c0,0.3-0.1,0.6-0.4,0.9h-3.5c-0.3-0.3-0.4-0.5-0.4-0.9c0.3,0,0.5-0.1,0.7-0.2
		c0.1-0.1,0.2-0.4,0.2-0.7v-4.7c0-0.3-0.1-0.5-0.2-0.6c-0.2-0.1-0.4-0.2-0.8-0.2v-0.7c0.3-0.2,0.8-0.4,1.4-0.5
		c0.6-0.2,1.1-0.2,1.4-0.2c0.2,0,0.4,0.1,0.5,0.2c0.1,0.1,0.2,0.4,0.3,0.8c0.3-0.3,0.6-0.6,1.1-0.8c0.4-0.2,0.9-0.3,1.4-0.3
		c1.1,0,1.8,0.4,2.1,1.1c0.3-0.3,0.6-0.6,1.1-0.8c0.4-0.2,0.9-0.3,1.5-0.3c0.8,0,1.3,0.2,1.7,0.6c0.4,0.4,0.6,0.9,0.6,1.6V79.1z"/>
	<path id="E_3_" class="st0" d="M378.9,79.2c0.7,0,1.3-0.2,1.9-0.6c0.1,0.1,0.2,0.2,0.2,0.4c0.1,0.2,0.1,0.3,0.1,0.4
		c0,0.2-0.1,0.4-0.4,0.7c-0.3,0.2-0.6,0.5-1.1,0.6c-0.4,0.2-1,0.3-1.5,0.3c-0.8,0-1.5-0.2-2.1-0.5c-0.6-0.3-1-0.8-1.4-1.5
		c-0.3-0.7-0.5-1.4-0.5-2.3c0-0.9,0.2-1.7,0.5-2.4c0.4-0.7,0.8-1.2,1.4-1.6c0.6-0.4,1.3-0.6,2.1-0.6c1,0,1.7,0.3,2.3,0.8
		c0.6,0.6,0.9,1.3,0.9,2.4c0,0.5-0.1,0.8-0.2,1.1c-0.1,0.3-0.4,0.4-0.8,0.4h-3.5C377,78.4,377.7,79.2,378.9,79.2z M378.1,73.3
		c-0.3,0-0.6,0.2-0.8,0.6c-0.2,0.4-0.3,1-0.4,1.8h1.6c0.2,0,0.3-0.1,0.3-0.2c0.1-0.1,0.1-0.3,0.1-0.5c0-0.6-0.1-1.1-0.2-1.3
		C378.6,73.4,378.4,73.3,378.1,73.3z"/>
</g>
<g id="QualityWork">
	<path id="Q" class="st0" d="M154.9,54.7c0.2,0.2,0.3,0.5,0.4,0.8c0.2,0.4,0.2,0.7,0.2,0.9c0,0.6-0.2,1.1-0.6,1.7
		c-0.4,0.6-1.1,1.1-2,1.5c-0.9,0.4-1.9,0.6-3.2,0.6c-1.3,0-2.4-0.2-3.3-0.6c-0.9-0.4-1.9-1-3-1.8c-1-0.7-1.8-1.2-2.5-1.6
		c-0.7-0.3-1.5-0.5-2.5-0.5c-1.1,0-2,0.1-2.7,0.2c-0.6,0.2-1.3,0.5-2.2,1.1l-1.3-1.6c0.7-1.3,1.9-2.3,3.4-3
		c-2.6-0.2-4.9-1.1-6.8-2.5c-1.9-1.4-3.4-3.4-4.4-5.8c-1-2.4-1.5-5.2-1.5-8.3c0-3.5,0.6-6.4,1.7-8.9c1.2-2.5,2.8-4.4,4.9-5.8
		c2.1-1.3,4.6-2,7.5-2c2.9,0,5.5,0.7,7.6,2.1c2.1,1.4,3.8,3.3,4.9,5.8c1.2,2.5,1.7,5.4,1.7,8.7c0,4.1-0.8,7.5-2.5,10.3
		c-1.6,2.7-3.9,4.6-6.9,5.6c1.1,0.2,2.2,0.6,3.3,1.1c1.1,0.5,2.3,1.1,3.5,1.8c0.8,0.4,1.7,0.6,2.9,0.6C153,55.2,154,55,154.9,54.7z
		 M131.6,36c0,4.8,0.5,8.2,1.5,10.2c1,1.9,2.4,2.9,4.1,2.9c1.7,0,3.1-1,4.1-2.9c1.1-1.9,1.6-5.4,1.6-10.5c0-4.8-0.5-8.2-1.5-10.2
		s-2.4-2.9-4.1-2.9c-1.7,0-3.1,1-4.1,2.9C132.1,27.4,131.6,30.9,131.6,36z"/>
	<path id="U" class="st0" d="M176.2,46.5c0,0.7,0.2,1.3,0.6,1.8c0.4,0.5,1,0.8,1.7,0.8v1.3c-0.5,0.6-1.3,1-2.3,1.3
		c-1,0.3-2,0.5-3.1,0.5c-1,0-1.9-0.3-2.7-0.8c-0.7-0.6-1.2-1.3-1.5-2.3c-1.5,2.1-3.6,3.1-6.3,3.1c-2.1,0-3.8-0.7-5-2
		c-1.2-1.3-1.8-3.1-1.8-5.3V32.2c0-0.5-0.2-0.9-0.6-1.1c-0.4-0.2-0.9-0.3-1.7-0.3v-2c0.5-0.4,1.3-0.7,2.6-1.1
		c1.3-0.4,2.7-0.6,4.2-0.6c0.9,0,1.5,0.1,1.9,0.2c0.4,0.1,0.7,0.3,0.8,0.6c0.2,0.3,0.2,0.9,0.2,1.6V45c0,1,0.2,1.7,0.5,2.2
		c0.3,0.5,0.9,0.7,1.6,0.7c0.6,0,1.2-0.2,1.8-0.6c0.6-0.4,1.1-0.9,1.6-1.4V32.2c0-1-0.9-1.4-2.6-1.4v-2c0.5-0.4,1.4-0.8,2.7-1.1
		c1.3-0.4,2.8-0.6,4.3-0.6c1.3,0,2.1,0.2,2.5,0.5c0.4,0.3,0.6,0.9,0.6,2V46.5z"/>
	<path id="A" class="st0" d="M180,45.4c0-2.1,0.7-3.7,2-4.9c1.3-1.2,3.3-1.8,6-1.8c0.9,0,1.9,0.1,2.8,0.3c1,0.2,1.8,0.4,2.4,0.7
		v-6.1c0-1.2-0.3-2.1-0.9-2.6c-0.6-0.6-1.4-0.8-2.5-0.8c-1,0-1.8,0.2-2.5,0.7c0.6,0.2,1,0.5,1.3,1c0.3,0.4,0.5,0.9,0.5,1.5
		c0,1-0.4,1.8-1.1,2.4c-0.7,0.6-1.6,0.9-2.7,0.9c-1.2,0-2.1-0.3-2.8-1c-0.7-0.7-1.1-1.5-1.1-2.6s0.4-2.1,1.1-3
		c0.7-1,1.9-1.7,3.4-2.3c1.5-0.6,3.4-0.9,5.7-0.9c3,0,5.3,0.6,6.9,1.9c1.6,1.2,2.3,3,2.3,5.4v12.2c0,1.5,0.7,2.4,2.1,2.7v1.5
		c-0.4,0.6-1.1,1-2,1.3s-1.9,0.5-2.8,0.5c-2.1,0-3.6-0.7-4.4-2.2c-0.7,0.6-1.6,1.1-2.6,1.6c-1,0.4-2.2,0.6-3.4,0.6
		c-2.3,0-4.2-0.6-5.6-1.9C180.7,49,180,47.4,180,45.4z M193.2,43.2c-0.3-0.2-0.8-0.4-1.2-0.6c-0.5-0.2-0.9-0.2-1.3-0.2
		c-0.9,0-1.6,0.3-2.1,0.8c-0.6,0.5-0.8,1.3-0.8,2.3c0,0.8,0.3,1.5,0.8,2.1c0.6,0.5,1.3,0.8,2.2,0.8c0.5,0,0.9-0.1,1.3-0.2
		c0.5-0.2,0.8-0.3,1.2-0.6V43.2z"/>
	<path id="L" class="st0" d="M207.5,22.4c0-0.8-0.2-1.3-0.7-1.7c-0.4-0.4-1.2-0.6-2.4-0.6v-1.8c1.1-0.6,2.5-1.1,4.2-1.6
		c1.7-0.4,3.1-0.6,4.1-0.6c0.7,0,1.3,0.2,1.6,0.5c0.3,0.3,0.5,0.8,0.5,1.6v28.7c0,1,0.2,1.6,0.6,2c0.4,0.4,1.1,0.6,2,0.6
		c0,0.9-0.4,1.7-1.1,2.5H206c-0.7-0.8-1.1-1.6-1.1-2.5c0.9,0,1.5-0.2,1.9-0.6c0.4-0.4,0.6-1.1,0.6-2V22.4z"/>
	<path id="I" class="st0" d="M230.1,19.3c0,1.3-0.4,2.4-1.2,3.2c-0.8,0.8-1.9,1.2-3.2,1.2c-1.3,0-2.4-0.4-3.2-1.2
		c-0.8-0.8-1.1-1.9-1.1-3.2c0-1.3,0.4-2.3,1.2-3.1c0.8-0.8,1.9-1.2,3.2-1.2c1.3,0,2.4,0.4,3.2,1.2C229.7,17,230.1,18,230.1,19.3z
		 M229.2,46.9c0,0.9,0.2,1.5,0.6,1.9c0.5,0.4,1.1,0.6,2.1,0.6c0,1-0.4,1.8-1.1,2.5h-10.4c-0.7-0.7-1.1-1.5-1.1-2.5
		c0.9,0,1.6-0.2,2-0.6c0.4-0.4,0.6-1.1,0.6-2V33.5c0-0.9-0.2-1.5-0.6-1.8c-0.4-0.4-1.2-0.6-2.4-0.6v-2c0.7-0.5,2-0.9,3.7-1.4
		c1.8-0.5,3.3-0.8,4.5-0.8c0.7,0,1.2,0.2,1.5,0.5c0.3,0.3,0.5,0.8,0.5,1.6V46.9z"/>
	<path id="T" class="st0" d="M243.3,31.6v13c0,0.9,0.2,1.6,0.6,1.9c0.4,0.3,0.9,0.5,1.6,0.5c0.6,0,1.2-0.2,1.8-0.5
		c0.6-0.3,1.2-0.7,1.5-1.1c0.3,0.2,0.5,0.6,0.6,1.1c0.2,0.5,0.2,0.9,0.2,1.3c0,0.7-0.2,1.4-0.7,2.1c-0.5,0.7-1.2,1.2-2.2,1.7
		c-1,0.4-2.2,0.6-3.5,0.6c-2.1,0-3.9-0.6-5.2-1.8c-1.3-1.2-1.9-3.3-1.9-6.1V31.6h-2.9v-2.8c0.8-0.1,1.6-0.6,2.3-1.5
		c0.8-0.9,1.4-2.1,1.9-3.4c0.6-1.4,0.9-2.7,1.1-4.1c0.6-0.1,1.1-0.1,1.5-0.1c1.1,0,1.9,0.3,2.4,1c0.6,0.6,0.8,1.3,0.8,2.1v4.8h5.3
		c0,0.9,0,1.7-0.1,2.4c-0.1,0.6-0.3,1.2-0.6,1.7H243.3z"/>
	<path id="Y" class="st0" d="M274.9,27.4c0.6,0.6,0.9,1.6,0.9,2.8c-0.7,0-1.3,0.2-1.7,0.6c-0.4,0.4-0.8,1-1.1,1.8l-5.2,16.3
		c-1.4,4.5-2.9,7.7-4.4,9.7s-3.5,2.9-5.9,2.9c-1.8,0-3.3-0.4-4.2-1.1s-1.5-1.7-1.5-2.9c0-0.7,0.2-1.4,0.5-2c0.4-0.6,0.8-1,1.4-1.2
		c0.8,1,2.1,1.5,3.7,1.5c1,0,1.9-0.5,2.9-1.4c1-1,1.7-2.3,2.3-4.2h-3.8l-7.1-17.2c-0.1-0.2-0.2-0.6-0.5-1.1c-0.2-0.6-0.6-1-0.9-1.2
		c-0.4-0.2-0.8-0.4-1.4-0.4c0-1.2,0.3-2.1,1-2.8h10.9c0.7,0.8,1.1,1.7,1.1,2.8c-1.4,0-2.1,0.7-2.1,2.1c0,0.6,0.1,1.1,0.2,1.5
		l4.3,12.5l3-13.1c0.1-0.4,0.1-0.8,0.1-1.1c0-1.3-0.8-1.9-2.3-1.9c0-1.3,0.3-2.2,0.9-2.8H274.9z"/>
	<path id="W" class="st0" d="M329,19.7c0.5,0.8,0.7,1.8,0.7,2.9c-1.1,0-1.9,0.2-2.5,0.5c-0.6,0.3-1,0.9-1.2,1.7l-5.8,21.1
		c-0.6,2.2-1.4,3.8-2.3,4.8c-0.9,1-2.1,1.5-3.6,1.5h-2.6l-4.2-14.8l-1.8-6.8l-1.5,6.8l-2.3,8.5c-0.6,2.2-1.3,3.8-2.2,4.8
		c-0.9,1-2,1.5-3.5,1.5h-2.5l-8.1-27.4c-0.2-0.8-0.6-1.4-1-1.7c-0.4-0.3-1.1-0.5-2.2-0.5c0-1.2,0.2-2.1,0.7-2.9h12.4
		c0.5,1,0.8,2,0.8,2.9c-1.1,0-1.8,0.2-2.2,0.6c-0.4,0.4-0.6,0.9-0.6,1.5l4,14.9l0.7,3.8l4.4-16.8c0.2-1.3,0.6-2.4,1.2-3.2
		c0.6-0.9,1.3-1.3,2.2-1.3h4.8l4.6,17.5l1,4l1.1-4l3.4-13.2c0.1-0.3,0.1-0.6,0.1-0.9c0-0.8-0.3-1.4-0.9-1.9
		c-0.6-0.5-1.4-0.7-2.3-0.7c0-1.2,0.2-2.1,0.6-2.9H329z"/>
	<path id="O" class="st0" d="M338.4,52.4c-3.4,0-6.1-1.1-8.1-3.2c-2-2.1-3-5.2-3-9.2c0-2.8,0.5-5.2,1.4-7.2c1-2,2.3-3.5,4.1-4.5
		c1.7-1,3.8-1.5,6.1-1.5c2.2,0,4.1,0.5,5.8,1.5c1.7,1,3,2.4,3.9,4.2c1,1.9,1.4,4.1,1.4,6.8c0,2.8-0.5,5.2-1.5,7.1
		c-1,2-2.3,3.5-4,4.5C342.7,52,340.7,52.4,338.4,52.4z M338.8,49.1c1.1,0,1.9-0.6,2.4-1.8c0.5-1.2,0.8-3.5,0.8-6.8
		c0-2.8-0.1-4.9-0.4-6.4c-0.3-1.5-0.7-2.5-1.1-3.1c-0.5-0.6-1.1-0.8-1.9-0.8c-1.1,0-1.9,0.6-2.4,1.8c-0.5,1.2-0.8,3.5-0.8,6.9
		c0,2.8,0.1,4.9,0.4,6.4c0.3,1.5,0.7,2.5,1.2,3C337.4,48.9,338,49.1,338.8,49.1z"/>
	<path id="R" class="st0" d="M368.1,26.9c1.4,0,2.4,0.4,3,1.1c0.6,0.7,1,1.7,1,2.9c0,1.3-0.4,2.4-1.1,3.2c-0.7,0.8-1.6,1.2-2.8,1.2
		c-1,0-1.8-0.3-2.5-0.9c-0.6-0.6-0.9-1.3-0.9-2.1c0-0.5,0-0.9,0.1-1.1c-1.1,0.3-2,0.8-2.8,1.4v13.8c0,0.8,0.1,1.3,0.3,1.7
		c0.2,0.4,0.6,0.7,1.2,0.9c0.6,0.2,1.6,0.3,2.9,0.3c0,0.6-0.1,1-0.2,1.4c-0.1,0.4-0.4,0.7-0.7,1.1h-12.3c-0.7-0.7-1.1-1.5-1.1-2.5
		c0.9,0,1.5-0.2,1.9-0.6c0.4-0.4,0.6-1.1,0.6-2V33.5c0-0.8-0.2-1.4-0.7-1.7c-0.4-0.3-1.2-0.5-2.3-0.5v-2.1c1-0.6,2.3-1.1,4-1.5
		c1.7-0.5,3-0.7,3.9-0.7c0.7,0,1.3,0.3,1.6,0.8c0.3,0.5,0.5,1.6,0.5,3.1c0.6-1,1.4-2,2.6-2.8C365.6,27.3,366.8,26.9,368.1,26.9z"/>
	<path id="K" class="st0" d="M398.7,50.3c-0.1,0.6-0.5,1.1-1.3,1.5c-0.7,0.3-1.7,0.5-2.9,0.5c-1.6,0-2.9-0.3-3.9-1
		c-1-0.7-1.8-1.5-2.4-2.4c-0.6-1-1.2-2.2-1.9-3.7c-0.7-1.5-1.3-2.7-1.8-3.5c-0.5-0.8-1.1-1.3-1.9-1.7v7c0,0.9,0.2,1.5,0.6,1.9
		c0.4,0.4,1.1,0.6,2,0.6c0,1-0.4,1.8-1.1,2.4H374c-0.7-0.6-1.1-1.5-1.1-2.4c0.9,0,1.6-0.2,1.9-0.6c0.4-0.4,0.6-1,0.6-1.9V22.1
		c0-0.8-0.2-1.3-0.6-1.7c-0.4-0.4-1.2-0.6-2.4-0.6V18c1.1-0.6,2.5-1.1,4.2-1.6c1.7-0.5,3.1-0.7,4-0.7c0.7,0,1.3,0.2,1.6,0.5
		c0.3,0.3,0.5,0.9,0.5,1.7v20.5l5.1-5.2c0.6-0.6,0.9-1,0.9-1.4c0-0.4-0.3-0.8-1-1.2c-0.6-0.4-1.3-0.6-1.9-0.6c0-0.5,0.1-1,0.3-1.5
		s0.4-0.9,0.8-1.3h10.3c0.6,0.6,0.9,1.5,0.9,2.8c-0.7,0-1.3,0.1-1.7,0.3c-0.4,0.2-0.8,0.5-1.2,0.9l-7,6.9c1.1,0.2,2.1,0.6,2.9,1.1
		c0.8,0.6,1.5,1.4,2.2,2.6c0.8,1.4,1.2,2.1,1.2,2.2c1,1.9,1.8,3.1,2.3,3.8c0.5,0.6,1.3,1.1,2.2,1.4L398.7,50.3z"/>
</g>
<path id="Label_Q" class="st0" d="M59.6,59.8c0.1,0.1,0.2,0.3,0.2,0.5c0.1,0.2,0.1,0.4,0.1,0.5c0,0.3-0.1,0.7-0.4,1
	c-0.2,0.3-0.6,0.6-1.1,0.9c-0.5,0.2-1.1,0.3-1.8,0.3c-0.7,0-1.3-0.1-1.8-0.4c-0.5-0.3-1-0.6-1.7-1.1c-0.5-0.4-1-0.7-1.4-0.9
	c-0.4-0.2-0.8-0.3-1.4-0.3c-0.6,0-1.1,0-1.5,0.1c-0.3,0.1-0.7,0.3-1.2,0.6l-0.7-0.9c0.4-0.8,1-1.4,1.9-1.7c-1.4-0.1-2.7-0.6-3.7-1.5
	c-1.1-0.8-1.9-2-2.4-3.4c-0.5-1.4-0.8-3-0.8-4.8c0-2,0.3-3.8,1-5.2c0.6-1.5,1.6-2.6,2.7-3.4c1.2-0.8,2.6-1.2,4.1-1.2
	c1.6,0,3,0.4,4.2,1.2c1.2,0.8,2.1,1.9,2.7,3.4c0.6,1.5,1,3.2,1,5.1c0,2.4-0.5,4.4-1.4,6c-0.9,1.6-2.2,2.7-3.8,3.3
	c0.6,0.1,1.2,0.4,1.8,0.6c0.6,0.3,1.3,0.7,1.9,1c0.4,0.3,1,0.4,1.6,0.4C58.6,60.1,59.2,60,59.6,59.8z M46.8,48.8
	c0,2.8,0.3,4.8,0.8,6c0.6,1.1,1.3,1.7,2.3,1.7c0.9,0,1.7-0.6,2.3-1.7c0.6-1.1,0.9-3.2,0.9-6.2c0-2.8-0.3-4.8-0.8-5.9
	c-0.5-1.1-1.3-1.7-2.3-1.7c-0.9,0-1.7,0.6-2.3,1.7C47,43.8,46.8,45.9,46.8,48.8z"/>
<radialGradient id="Label_1_" cx="-779.2292" cy="1067.6459" r="1" gradientTransform="matrix(3.000000e-15 48 48 -3.000000e-15 -51197 37453)" gradientUnits="userSpaceOnUse">
	<stop  offset="0" style="stop-color:#FFCC00"/>
	<stop  offset="1" style="stop-color:#D09F0C"/>
</radialGradient>
<path id="Label" class="st1" d="M50.5,2c7.7,0.1,15,2,21.4,5.3c-3.4-0.7-6.6,1.3-10.1,4.1c-1.3,1.1-1.2,1.3-0.8,2.8
	c1.9,7.1,1.9,14.1,0.5,20.9L50,23.7L38.5,35.2c-1.4-6.9-1.4-13.8,0.5-20.9c0.4-1.6,0.5-1.8-0.8-2.8c-3.4-2.9-6.7-4.8-10.1-4.1
	C34.5,4,41.8,2.1,49.5,2c-2,3.7-3.5,7.9-4.6,12.6c-0.2,0.7,0,0.8,0.6,0.4l4.4-3.7c0.1-0.1,0.1-0.1,0.2,0l4.4,3.7
	c0.6,0.5,0.7,0.3,0.6-0.4C53.9,9.9,52.4,5.7,50.5,2L50.5,2z M64.8,38.5c6.9-1.4,13.8-1.4,20.9,0.5c1.6,0.4,1.8,0.5,2.8-0.8
	c2.9-3.4,4.8-6.7,4.1-10.1c3.3,6.4,5.2,13.7,5.3,21.4c-3.7-2-7.9-3.5-12.6-4.6c-0.7-0.2-0.8,0-0.4,0.6l3.7,4.4
	c0.1,0.1,0.1,0.1,0,0.2l-3.7,4.4c-0.5,0.6-0.3,0.7,0.4,0.6c4.7-1.2,8.9-2.6,12.6-4.6c-0.1,7.7-2,15-5.3,21.4
	c0.7-3.4-1.3-6.6-4.1-10.1c-1.1-1.3-1.3-1.2-2.8-0.8c-7.1,1.9-14.1,1.9-20.9,0.5L76.3,50L64.8,38.5L64.8,38.5z M61.5,64.8
	c1.4,6.9,1.4,13.8-0.5,20.9c-0.4,1.6-0.5,1.8,0.8,2.8c3.4,2.9,6.7,4.8,10.1,4.1C65.5,96,58.2,97.9,50.5,98c2-3.7,3.5-7.9,4.6-12.6
	c0.2-0.7,0-0.8-0.6-0.4l-4.4,3.7c-0.1,0.1-0.1,0.1-0.2,0l-4.4-3.7c-0.6-0.5-0.7-0.3-0.6,0.4c1.2,4.7,2.6,8.9,4.6,12.6
	c-7.7-0.1-15-2-21.4-5.3c3.4,0.7,6.6-1.3,10.1-4.1c1.3-1.1,1.2-1.3,0.8-2.8c-1.9-7.1-1.9-14.1-0.5-20.9L50,76.3L61.5,64.8L61.5,64.8
	z M35.2,61.5c-6.9,1.4-13.8,1.4-20.9-0.5c-1.6-0.4-1.8-0.5-2.8,0.8c-2.9,3.4-4.8,6.7-4.1,10.1C4,65.5,2.1,58.2,2,50.5
	c3.7,2,7.9,3.5,12.6,4.6c0.7,0.2,0.8,0,0.4-0.6l-3.7-4.4c-0.1-0.1-0.1-0.1,0-0.2l3.7-4.4c0.5-0.6,0.3-0.7-0.4-0.6
	C9.9,46.1,5.7,47.6,2,49.5c0.1-7.7,2-15,5.3-21.4c-0.7,3.4,1.3,6.6,4.1,10.1c1.1,1.3,1.3,1.2,2.8,0.8c7.1-1.9,14.1-1.9,20.9-0.5
	L23.7,50L35.2,61.5L35.2,61.5z M79,79.2c-3.6-1-7.3-2.7-11-5c-0.5-0.3-0.5-0.5,0.1-0.6l4.9-0.4c0.1,0,0.1,0,0.1-0.1l0.4-4.9
	c0.1-0.6,0.2-0.7,0.6-0.1c2.2,3.7,4,7.4,5,11C79.2,79.1,79.1,79.2,79,79.2z M79.2,21c-1,3.6-2.7,7.3-5,11c-0.3,0.5-0.5,0.5-0.6-0.1
	l-0.4-4.9c0-0.1,0-0.1-0.1-0.1l-4.9-0.4c-0.6-0.1-0.7-0.2-0.1-0.6c3.7-2.2,7.4-4,11-5C79.1,20.8,79.2,20.9,79.2,21z M20.8,21
	c1,3.6,2.7,7.3,5,11c0.3,0.5,0.5,0.5,0.6-0.1l0.4-4.9c0-0.1,0-0.1,0.1-0.1l4.9-0.4c0.6-0.1,0.7-0.2,0.1-0.6c-3.7-2.2-7.4-4-11-5
	C20.9,20.8,20.8,20.9,20.8,21L20.8,21z M21,79.2c3.6-1,7.3-2.7,11-5c0.5-0.3,0.5-0.5-0.1-0.6l-4.9-0.4c-0.1,0-0.1,0-0.1-0.1
	l-0.4-4.9c-0.1-0.6-0.2-0.7-0.6-0.1c-2.2,3.7-4,7.4-5,11C20.8,79.1,20.9,79.2,21,79.2L21,79.2z M76.6,10c5.3,3.5,9.9,8.1,13.4,13.4
	c-1.7-1.7-4.1-3.4-7.6-5.3c-0.3-0.2-0.4-0.2-0.5-0.5C80,14.2,78.3,11.7,76.6,10L76.6,10z M90,76.6c-3.5,5.3-8.1,9.9-13.4,13.4
	c1.7-1.7,3.4-4.1,5.3-7.6c0.2-0.3,0.2-0.4,0.5-0.5C85.8,80,88.3,78.3,90,76.6L90,76.6z M23.4,90c-5.3-3.5-9.9-8.1-13.4-13.4
	c1.7,1.7,4.1,3.4,7.6,5.3c0.3,0.2,0.4,0.2,0.5,0.5C20,85.9,21.7,88.3,23.4,90L23.4,90z M10,23.4c3.5-5.3,8.1-9.9,13.4-13.4
	c-1.7,1.7-3.4,4.1-5.3,7.6c-0.2,0.3-0.2,0.4-0.5,0.5C14.1,20,11.7,21.7,10,23.4L10,23.4z"/>
</svg>
