<svg width="48" height="48" viewBox="0 0 48 48" fill="none" xmlns="http://www.w3.org/2000/svg">
<rect width="48" height="48" fill="#D09F0C"/>
<path d="M40.106 39.424C40.246 39.592 40.372 39.844 40.484 40.18C40.624 40.544 40.694 40.824 40.694 41.02C40.694 41.524 40.498 42.042 40.106 42.574C39.714 43.106 39.112 43.554 38.3 43.918C37.516 44.282 36.536 44.464 35.36 44.464C34.184 44.464 33.19 44.268 32.378 43.876C31.566 43.484 30.656 42.924 29.648 42.196C28.78 41.552 28.024 41.062 27.38 40.726C26.736 40.418 25.98 40.264 25.112 40.264C24.076 40.264 23.264 40.334 22.676 40.474C22.116 40.614 21.444 40.936 20.66 41.44L19.442 40.012C20.114 38.808 21.136 37.898 22.508 37.282C20.128 37.058 18.07 36.302 16.334 35.014C14.598 33.698 13.268 31.948 12.344 29.764C11.448 27.552 11 25.032 11 22.204C11 19.04 11.532 16.324 12.596 14.056C13.66 11.76 15.158 10.01 17.09 8.806C19.05 7.602 21.332 7 23.936 7C26.624 7 28.948 7.63 30.908 8.89C32.868 10.15 34.366 11.928 35.402 14.224C36.466 16.492 36.998 19.152 36.998 22.204C36.998 25.956 36.242 29.078 34.73 31.57C33.246 34.062 31.16 35.756 28.472 36.652C29.508 36.876 30.516 37.212 31.496 37.66C32.504 38.136 33.568 38.682 34.688 39.298C35.388 39.69 36.284 39.886 37.376 39.886C38.384 39.886 39.294 39.732 40.106 39.424ZM18.854 22.33C18.854 26.754 19.302 29.862 20.198 31.654C21.122 33.418 22.382 34.3 23.978 34.3C25.518 34.3 26.764 33.418 27.716 31.654C28.696 29.89 29.186 26.684 29.186 22.036C29.186 17.612 28.738 14.518 27.842 12.754C26.946 10.99 25.686 10.108 24.062 10.108C22.522 10.108 21.262 10.99 20.282 12.754C19.33 14.518 18.854 17.71 18.854 22.33Z" fill="white"/>
</svg>