<?xml version="1.0" encoding="utf-8"?>
<!-- Generator: Adobe Illustrator 25.2.3, SVG Export Plug-In . SVG Version: 6.00 Build 0)  -->
<svg version="1.1" id="QualityWork_1_" xmlns="http://www.w3.org/2000/svg" xmlns:xlink="http://www.w3.org/1999/xlink" x="0px"
	 y="0px" viewBox="0 0 300 250" style="enable-background:new 0 0 300 250;" xml:space="preserve">
<style type="text/css">
	.st0{fill:#D09F0C;}
	.st1{fill-rule:evenodd;clip-rule:evenodd;fill:url(#Label_1_);}
</style>
<g id="UnderText">
	<path id="I_1_" class="st0" d="M28.6,240c-0.1-0.1-0.2-0.3-0.3-0.5c-0.1-0.2-0.1-0.4-0.1-0.6c0.4,0,0.6-0.1,0.7-0.2
		c0.1-0.1,0.2-0.3,0.2-0.6v-7.5c0-0.3-0.1-0.5-0.2-0.6c-0.1-0.1-0.4-0.2-0.7-0.2c0-0.2,0-0.4,0.1-0.5c0.1-0.2,0.1-0.3,0.3-0.5h3.9
		c0.1,0.1,0.2,0.3,0.3,0.5c0.1,0.2,0.1,0.4,0.1,0.5c-0.4,0-0.6,0.1-0.8,0.2c-0.1,0.1-0.2,0.3-0.2,0.6v7.5c0,0.3,0.1,0.5,0.2,0.6
		c0.1,0.1,0.4,0.2,0.8,0.2c0,0.2,0,0.4-0.1,0.6c-0.1,0.2-0.1,0.3-0.3,0.5H28.6z"/>
	<path id="N" class="st0" d="M42.8,239.6c-0.2,0.2-0.4,0.3-0.9,0.4c-0.4,0.1-0.8,0.1-1.2,0.1c-0.5,0-0.8-0.1-1-0.3
		c-0.2-0.2-0.3-0.4-0.3-0.8v-5c0-0.4-0.1-0.7-0.3-0.9c-0.2-0.2-0.4-0.3-0.7-0.3c-0.4,0-0.8,0.2-1.1,0.5v4.9c0,0.3,0.1,0.5,0.2,0.7
		c0.1,0.1,0.4,0.2,0.7,0.2c0,0.3-0.1,0.6-0.4,0.8h-3.6c-0.3-0.3-0.4-0.5-0.4-0.8c0.3,0,0.5-0.1,0.7-0.2c0.1-0.1,0.2-0.4,0.2-0.7
		v-4.7c0-0.3-0.1-0.5-0.2-0.6c-0.2-0.1-0.4-0.2-0.8-0.2v-0.7c0.3-0.2,0.8-0.4,1.4-0.5c0.6-0.2,1.1-0.2,1.4-0.2
		c0.2,0,0.4,0.1,0.6,0.2c0.1,0.1,0.2,0.4,0.2,0.9c0.3-0.3,0.6-0.6,1-0.8c0.4-0.2,0.9-0.3,1.4-0.3c0.8,0,1.3,0.2,1.7,0.6
		c0.4,0.4,0.6,1,0.6,1.9v4.4c0,0.5,0.3,0.8,0.8,0.9L42.8,239.6z"/>
	<path id="T_1_" class="st0" d="M49.9,232.9v4.5c0,0.3,0.1,0.5,0.2,0.7c0.1,0.1,0.3,0.2,0.5,0.2c0.2,0,0.4-0.1,0.6-0.2
		c0.2-0.1,0.4-0.2,0.5-0.4c0.1,0.1,0.2,0.2,0.2,0.4c0.1,0.2,0.1,0.3,0.1,0.5c0,0.2-0.1,0.5-0.3,0.7c-0.2,0.2-0.4,0.4-0.8,0.6
		c-0.3,0.1-0.8,0.2-1.2,0.2c-0.7,0-1.3-0.2-1.8-0.6c-0.4-0.4-0.7-1.1-0.7-2.1v-4.4h-1v-1c0.3,0,0.5-0.2,0.8-0.5
		c0.3-0.3,0.5-0.7,0.7-1.2c0.2-0.5,0.3-1,0.4-1.4c0.2,0,0.4,0,0.5,0c0.4,0,0.7,0.1,0.8,0.3c0.2,0.2,0.3,0.5,0.3,0.7v1.7h1.9
		c0,0.3,0,0.6,0,0.8c0,0.2-0.1,0.4-0.2,0.6H49.9z"/>
	<path id="H" class="st0" d="M61.5,239.6c-0.4,0.4-1,0.5-1.8,0.5c-1.1,0-1.6-0.3-1.6-1v-5.2c0-0.3-0.1-0.6-0.3-0.8
		c-0.2-0.2-0.4-0.3-0.8-0.3c-0.2,0-0.4,0.1-0.7,0.2c-0.2,0.1-0.4,0.3-0.5,0.5v4.7c0,0.3,0.1,0.5,0.2,0.7c0.1,0.1,0.4,0.2,0.7,0.2
		c0,0.3-0.1,0.6-0.4,0.9h-3.5c-0.2-0.2-0.4-0.5-0.4-0.9c0.3,0,0.5-0.1,0.7-0.2c0.1-0.1,0.2-0.4,0.2-0.7v-8.7c0-0.3-0.1-0.5-0.2-0.6
		c-0.1-0.1-0.4-0.2-0.8-0.2v-0.7c0.4-0.2,0.9-0.4,1.5-0.5c0.6-0.2,1.1-0.2,1.4-0.2c0.2,0,0.4,0.1,0.5,0.2c0.1,0.1,0.2,0.3,0.2,0.6
		v3.2l0,1.3c0.3-0.4,0.7-0.7,1.1-0.9c0.4-0.2,0.9-0.4,1.5-0.4c0.7,0,1.3,0.2,1.7,0.6c0.4,0.4,0.6,1,0.6,1.8v4.5
		c0,0.3,0.1,0.5,0.2,0.6c0.1,0.2,0.3,0.3,0.6,0.3L61.5,239.6z"/>
	<path id="E" class="st0" d="M66.9,238.4c0.7,0,1.3-0.2,1.9-0.6c0.1,0.1,0.2,0.2,0.2,0.4c0.1,0.2,0.1,0.3,0.1,0.4
		c0,0.2-0.1,0.4-0.4,0.7c-0.3,0.2-0.6,0.5-1.1,0.6c-0.4,0.2-1,0.3-1.5,0.3c-0.8,0-1.5-0.2-2.1-0.5c-0.6-0.3-1-0.8-1.4-1.5
		c-0.3-0.7-0.5-1.4-0.5-2.3c0-0.9,0.2-1.7,0.5-2.4c0.4-0.7,0.8-1.2,1.4-1.6c0.6-0.4,1.3-0.6,2.1-0.6c1,0,1.7,0.3,2.3,0.8
		c0.6,0.6,0.9,1.3,0.9,2.4c0,0.5-0.1,0.8-0.2,1.1c-0.1,0.3-0.4,0.4-0.8,0.4H65C65,237.6,65.7,238.4,66.9,238.4z M66.2,232.4
		c-0.3,0-0.6,0.2-0.8,0.6c-0.2,0.4-0.3,1-0.4,1.8h1.6c0.2,0,0.3-0.1,0.3-0.2c0.1-0.1,0.1-0.3,0.1-0.5c0-0.6-0.1-1.1-0.2-1.3
		C66.6,232.6,66.4,232.4,66.2,232.4z"/>
	<path id="R_1_" class="st0" d="M78.8,231.3c0.5,0,0.8,0.1,1.1,0.4c0.2,0.2,0.3,0.6,0.3,1c0,0.5-0.1,0.8-0.4,1.1
		c-0.2,0.3-0.6,0.4-1,0.4c-0.4,0-0.6-0.1-0.9-0.3c-0.2-0.2-0.3-0.4-0.3-0.7c0-0.2,0-0.3,0-0.4c-0.4,0.1-0.7,0.3-1,0.5v4.8
		c0,0.3,0,0.5,0.1,0.6c0.1,0.1,0.2,0.2,0.4,0.3c0.2,0.1,0.6,0.1,1,0.1c0,0.2,0,0.4-0.1,0.5c0,0.1-0.1,0.3-0.2,0.4h-4.3
		c-0.2-0.2-0.4-0.5-0.4-0.9c0.3,0,0.5-0.1,0.7-0.2c0.1-0.1,0.2-0.4,0.2-0.7v-4.6c0-0.3-0.1-0.5-0.2-0.6c-0.1-0.1-0.4-0.2-0.8-0.2
		v-0.7c0.4-0.2,0.8-0.4,1.4-0.5c0.6-0.2,1-0.2,1.4-0.2c0.3,0,0.4,0.1,0.5,0.3s0.2,0.5,0.2,1.1c0.2-0.4,0.5-0.7,0.9-1
		C77.9,231.5,78.3,231.3,78.8,231.3z"/>
	<path id="I_2_" class="st0" d="M84.2,228.7c0,0.5-0.1,0.8-0.4,1.1c-0.3,0.3-0.7,0.4-1.1,0.4c-0.5,0-0.8-0.1-1.1-0.4
		c-0.3-0.3-0.4-0.6-0.4-1.1c0-0.4,0.1-0.8,0.4-1.1c0.3-0.3,0.7-0.4,1.1-0.4c0.5,0,0.8,0.1,1.1,0.4C84.1,227.9,84.2,228.2,84.2,228.7
		z M83.9,238.3c0,0.3,0.1,0.5,0.2,0.7c0.2,0.1,0.4,0.2,0.7,0.2c0,0.3-0.1,0.6-0.4,0.9h-3.6c-0.2-0.2-0.4-0.5-0.4-0.9
		c0.3,0,0.5-0.1,0.7-0.2c0.1-0.1,0.2-0.4,0.2-0.7v-4.6c0-0.3-0.1-0.5-0.2-0.6c-0.1-0.1-0.4-0.2-0.8-0.2v-0.7
		c0.3-0.2,0.7-0.3,1.3-0.5c0.6-0.2,1.1-0.3,1.6-0.3c0.2,0,0.4,0.1,0.5,0.2c0.1,0.1,0.2,0.3,0.2,0.6V238.3z"/>
	<path id="G" class="st0" d="M89.4,238.1c1.4,0.1,2.4,0.3,3.1,0.8c0.7,0.4,1,1,1,1.8c0,0.5-0.2,1-0.6,1.5c-0.4,0.5-0.9,0.8-1.6,1.1
		c-0.7,0.3-1.4,0.4-2.1,0.4c-1.3,0-2.2-0.2-2.8-0.7c-0.6-0.4-0.9-1.1-0.9-1.8c0-0.4,0.1-0.8,0.4-1.1c0.3-0.3,0.6-0.6,1.1-0.7
		c-0.2-0.1-0.4-0.3-0.4-0.5c-0.1-0.2-0.1-0.5-0.1-0.8c0-0.2,0.1-0.4,0.2-0.6c0.1-0.2,0.4-0.4,0.6-0.4c-0.5-0.3-0.9-0.6-1.2-1.1
		c-0.3-0.5-0.4-1-0.4-1.5c0-0.6,0.1-1.1,0.4-1.5c0.3-0.4,0.7-0.8,1.2-1.1c0.5-0.3,1.2-0.4,1.9-0.4h0c0.4,0,0.7,0,1,0.1
		c1,0,1.7,0,2.1,0c0.4,0,0.8-0.1,1.1-0.1c0.1,0,0.2,0.1,0.2,0.2c0.1,0.1,0.1,0.3,0.1,0.4c0,0.5-0.2,0.7-0.6,0.7
		c-0.1,0-0.4-0.1-0.9-0.3c-0.1,0-0.2-0.1-0.4-0.2c0.4,0.3,0.6,0.6,0.8,1c0.2,0.4,0.3,0.7,0.3,1.1c0,1-0.3,1.8-1,2.3
		c-0.7,0.5-1.6,0.8-2.8,0.8c-0.3,0-0.6,0-1-0.1v0c0,0.3,0.1,0.4,0.3,0.6C88.5,238,88.9,238.1,89.4,238.1z M89.3,232.4
		c-0.3,0-0.6,0.2-0.7,0.5c-0.1,0.4-0.2,0.9-0.2,1.5c0,1.2,0.3,1.8,0.9,1.8c0.3,0,0.6-0.2,0.7-0.5s0.2-0.9,0.2-1.7
		c0-0.6-0.1-1-0.2-1.3C89.8,232.6,89.6,232.4,89.3,232.4z M89.7,242.3c0.5,0,0.9-0.1,1.1-0.4c0.2-0.2,0.4-0.5,0.4-0.9
		c0-0.3-0.2-0.6-0.6-0.7c-0.4-0.1-1-0.3-1.8-0.4l-0.7-0.1c-0.1,0.2-0.2,0.5-0.2,0.9c0,0.5,0.1,0.9,0.4,1.2
		C88.5,242.1,89,242.3,89.7,242.3z"/>
	<path id="H_1_" class="st0" d="M102.9,239.6c-0.4,0.4-1,0.5-1.8,0.5c-1.1,0-1.6-0.3-1.6-1v-5.2c0-0.3-0.1-0.6-0.3-0.8
		c-0.2-0.2-0.4-0.3-0.8-0.3c-0.2,0-0.4,0.1-0.7,0.2c-0.2,0.1-0.4,0.3-0.5,0.5v4.7c0,0.3,0.1,0.5,0.2,0.7c0.1,0.1,0.4,0.2,0.7,0.2
		c0,0.3-0.1,0.6-0.4,0.9h-3.5c-0.2-0.2-0.4-0.5-0.4-0.9c0.3,0,0.5-0.1,0.7-0.2c0.1-0.1,0.2-0.4,0.2-0.7v-8.7c0-0.3-0.1-0.5-0.2-0.6
		c-0.1-0.1-0.4-0.2-0.8-0.2v-0.7c0.4-0.2,0.9-0.4,1.5-0.5c0.6-0.2,1.1-0.2,1.4-0.2c0.2,0,0.4,0.1,0.5,0.2c0.1,0.1,0.2,0.3,0.2,0.6
		v3.2l0,1.3c0.3-0.4,0.7-0.7,1.1-0.9c0.4-0.2,0.9-0.4,1.5-0.4c0.7,0,1.3,0.2,1.7,0.6c0.4,0.4,0.6,1,0.6,1.8v4.5
		c0,0.3,0.1,0.5,0.2,0.6c0.1,0.2,0.3,0.3,0.6,0.3L102.9,239.6z"/>
	<path id="T_2_" class="st0" d="M106.9,232.9v4.5c0,0.3,0.1,0.5,0.2,0.7c0.1,0.1,0.3,0.2,0.5,0.2c0.2,0,0.4-0.1,0.6-0.2
		c0.2-0.1,0.4-0.2,0.5-0.4c0.1,0.1,0.2,0.2,0.2,0.4c0.1,0.2,0.1,0.3,0.1,0.5c0,0.2-0.1,0.5-0.3,0.7c-0.2,0.2-0.4,0.4-0.8,0.6
		c-0.3,0.1-0.8,0.2-1.2,0.2c-0.7,0-1.3-0.2-1.8-0.6c-0.4-0.4-0.7-1.1-0.7-2.1v-4.4h-1v-1c0.3,0,0.5-0.2,0.8-0.5
		c0.3-0.3,0.5-0.7,0.7-1.2c0.2-0.5,0.3-1,0.4-1.4c0.2,0,0.4,0,0.5,0c0.4,0,0.7,0.1,0.8,0.3c0.2,0.2,0.3,0.5,0.3,0.7v1.7h1.9
		c0,0.3,0,0.6,0,0.8c0,0.2-0.1,0.4-0.2,0.6H106.9z"/>
	<path id="P" class="st0" d="M116.6,240.2c-0.1,0-0.3,0-0.6,0v1.2c0,0.3,0.1,0.5,0.3,0.7c0.2,0.1,0.5,0.2,0.7,0.2
		c0,0.3-0.1,0.6-0.4,0.8h-3.5c-0.3-0.3-0.4-0.5-0.4-0.8c0.3,0,0.5-0.1,0.6-0.2s0.1-0.4,0.1-0.7v-7.7c0-0.3-0.1-0.5-0.2-0.6
		c-0.2-0.1-0.4-0.2-0.8-0.2v-0.7c0.3-0.2,0.8-0.4,1.3-0.5c0.5-0.2,0.9-0.2,1.2-0.2c0.2,0,0.4,0,0.5,0.1c0.1,0.1,0.2,0.3,0.3,0.5
		c0.4-0.4,1.1-0.6,1.9-0.6c0.6,0,1.1,0.1,1.6,0.4c0.5,0.3,0.9,0.8,1.2,1.4c0.3,0.6,0.4,1.3,0.4,2.2c0,1-0.2,1.9-0.6,2.6
		c-0.4,0.7-0.9,1.3-1.6,1.7C118.1,240,117.4,240.2,116.6,240.2z M118.1,235.7c0-1-0.2-1.8-0.5-2.3c-0.3-0.5-0.7-0.7-1.3-0.7
		c-0.2,0-0.3,0-0.4,0.1v6c0.2,0.1,0.4,0.2,0.6,0.2c0.5,0,0.8-0.3,1.1-0.8C118,237.6,118.1,236.8,118.1,235.7z"/>
	<path id="L_1_" class="st0" d="M122.7,229.8c0-0.3-0.1-0.5-0.2-0.6c-0.1-0.1-0.4-0.2-0.8-0.2v-0.6c0.4-0.2,0.9-0.4,1.5-0.5
		c0.6-0.1,1.1-0.2,1.4-0.2c0.3,0,0.4,0.1,0.5,0.2c0.1,0.1,0.2,0.3,0.2,0.6v10c0,0.3,0.1,0.6,0.2,0.7c0.1,0.1,0.4,0.2,0.7,0.2
		c0,0.3-0.1,0.6-0.4,0.9h-3.5c-0.2-0.3-0.4-0.6-0.4-0.9c0.3,0,0.5-0.1,0.7-0.2c0.1-0.1,0.2-0.4,0.2-0.7V229.8z"/>
	<path id="A_1_" class="st0" d="M126.8,237.7c0-0.7,0.2-1.3,0.7-1.7c0.5-0.4,1.2-0.6,2.1-0.6c0.3,0,0.6,0,1,0.1
		c0.3,0.1,0.6,0.1,0.8,0.3v-2.1c0-0.4-0.1-0.7-0.3-0.9c-0.2-0.2-0.5-0.3-0.9-0.3c-0.4,0-0.6,0.1-0.9,0.3c0.2,0.1,0.4,0.2,0.4,0.3
		c0.1,0.1,0.2,0.3,0.2,0.5c0,0.3-0.1,0.6-0.4,0.8c-0.2,0.2-0.6,0.3-0.9,0.3c-0.4,0-0.7-0.1-1-0.4c-0.2-0.2-0.4-0.5-0.4-0.9
		s0.1-0.7,0.4-1.1c0.3-0.3,0.6-0.6,1.2-0.8c0.5-0.2,1.2-0.3,2-0.3c1.1,0,1.9,0.2,2.4,0.7c0.5,0.4,0.8,1.1,0.8,1.9v4.2
		c0,0.5,0.2,0.8,0.7,0.9v0.5c-0.1,0.2-0.4,0.3-0.7,0.4c-0.3,0.1-0.6,0.2-1,0.2c-0.7,0-1.2-0.3-1.5-0.8c-0.2,0.2-0.5,0.4-0.9,0.5
		c-0.4,0.1-0.8,0.2-1.2,0.2c-0.8,0-1.5-0.2-2-0.7C127.1,239,126.8,238.4,126.8,237.7z M131.4,237c-0.1-0.1-0.3-0.1-0.4-0.2
		c-0.2-0.1-0.3-0.1-0.5-0.1c-0.3,0-0.5,0.1-0.7,0.3c-0.2,0.2-0.3,0.4-0.3,0.8c0,0.3,0.1,0.5,0.3,0.7c0.2,0.2,0.4,0.3,0.8,0.3
		c0.2,0,0.3,0,0.5-0.1c0.2-0.1,0.3-0.1,0.4-0.2V237z"/>
	<path id="C" class="st0" d="M141.8,238c0.1,0.1,0.2,0.2,0.2,0.4c0.1,0.2,0.1,0.3,0.1,0.4c0,0.2-0.1,0.5-0.4,0.7
		c-0.2,0.2-0.6,0.4-1,0.6c-0.4,0.1-0.8,0.2-1.3,0.2c-0.8,0-1.5-0.2-2.1-0.5c-0.6-0.4-1.1-0.9-1.4-1.5c-0.3-0.7-0.5-1.4-0.5-2.4
		c0-0.9,0.2-1.7,0.5-2.4c0.4-0.7,0.9-1.2,1.5-1.6c0.6-0.4,1.4-0.5,2.1-0.5c0.8,0,1.4,0.2,1.8,0.6c0.4,0.4,0.7,0.9,0.7,1.4
		c0,0.5-0.1,0.9-0.4,1.2c-0.3,0.3-0.6,0.4-1,0.4c-0.3,0-0.6-0.1-0.8-0.4s-0.3-0.5-0.3-0.9c0-0.2,0-0.4,0.1-0.6
		c0.1-0.2,0.2-0.3,0.4-0.4c-0.2-0.1-0.3-0.1-0.5-0.1c-0.4,0-0.7,0.2-1,0.7c-0.3,0.4-0.4,1.1-0.4,2.1c0,1.1,0.2,1.9,0.5,2.4
		c0.3,0.5,0.8,0.7,1.5,0.7c0.3,0,0.6,0,0.9-0.1C141.4,238.3,141.6,238.1,141.8,238z"/>
	<path id="E_1_" class="st0" d="M147.6,238.4c0.7,0,1.3-0.2,1.9-0.6c0.1,0.1,0.2,0.2,0.2,0.4s0.1,0.3,0.1,0.4c0,0.2-0.1,0.4-0.4,0.7
		c-0.3,0.2-0.6,0.5-1.1,0.6c-0.4,0.2-1,0.3-1.5,0.3c-0.8,0-1.5-0.2-2.1-0.5c-0.6-0.3-1-0.8-1.4-1.5c-0.3-0.7-0.5-1.4-0.5-2.3
		c0-0.9,0.2-1.7,0.5-2.4c0.4-0.7,0.8-1.2,1.4-1.6c0.6-0.4,1.3-0.6,2.1-0.6c1,0,1.7,0.3,2.3,0.8c0.6,0.6,0.9,1.3,0.9,2.4
		c0,0.5-0.1,0.8-0.2,1.1c-0.1,0.3-0.4,0.4-0.8,0.4h-3.5C145.6,237.6,146.3,238.4,147.6,238.4z M146.8,232.4c-0.3,0-0.6,0.2-0.8,0.6
		c-0.2,0.4-0.3,1-0.4,1.8h1.6c0.2,0,0.3-0.1,0.3-0.2c0.1-0.1,0.1-0.3,0.1-0.5c0-0.6-0.1-1.1-0.2-1.3
		C147.2,232.6,147,232.4,146.8,232.4z"/>
	<path id="A_2_" class="st0" d="M153.9,237.7c0-0.7,0.2-1.3,0.7-1.7c0.5-0.4,1.2-0.6,2.1-0.6c0.3,0,0.6,0,1,0.1
		c0.3,0.1,0.6,0.1,0.8,0.3v-2.1c0-0.4-0.1-0.7-0.3-0.9c-0.2-0.2-0.5-0.3-0.9-0.3c-0.4,0-0.6,0.1-0.9,0.3c0.2,0.1,0.4,0.2,0.4,0.3
		c0.1,0.1,0.2,0.3,0.2,0.5c0,0.3-0.1,0.6-0.4,0.8c-0.2,0.2-0.6,0.3-0.9,0.3c-0.4,0-0.7-0.1-1-0.4c-0.2-0.2-0.4-0.5-0.4-0.9
		s0.1-0.7,0.4-1.1c0.3-0.3,0.6-0.6,1.2-0.8c0.5-0.2,1.2-0.3,2-0.3c1.1,0,1.9,0.2,2.4,0.7c0.5,0.4,0.8,1.1,0.8,1.9v4.2
		c0,0.5,0.2,0.8,0.7,0.9v0.5c-0.1,0.2-0.4,0.3-0.7,0.4c-0.3,0.1-0.6,0.2-1,0.2c-0.7,0-1.2-0.3-1.5-0.8c-0.2,0.2-0.5,0.4-0.9,0.5
		c-0.4,0.1-0.8,0.2-1.2,0.2c-0.8,0-1.5-0.2-2-0.7C154.1,239,153.9,238.4,153.9,237.7z M158.5,237c-0.1-0.1-0.3-0.1-0.4-0.2
		c-0.2-0.1-0.3-0.1-0.5-0.1c-0.3,0-0.5,0.1-0.7,0.3c-0.2,0.2-0.3,0.4-0.3,0.8c0,0.3,0.1,0.5,0.3,0.7c0.2,0.2,0.4,0.3,0.8,0.3
		c0.2,0,0.3,0,0.5-0.1c0.2-0.1,0.3-0.1,0.4-0.2V237z"/>
	<path id="T_3_" class="st0" d="M165.8,232.9v4.5c0,0.3,0.1,0.5,0.2,0.7c0.1,0.1,0.3,0.2,0.5,0.2c0.2,0,0.4-0.1,0.6-0.2
		c0.2-0.1,0.4-0.2,0.5-0.4c0.1,0.1,0.2,0.2,0.2,0.4c0.1,0.2,0.1,0.3,0.1,0.5c0,0.2-0.1,0.5-0.3,0.7c-0.2,0.2-0.4,0.4-0.8,0.6
		s-0.8,0.2-1.2,0.2c-0.7,0-1.3-0.2-1.8-0.6c-0.4-0.4-0.7-1.1-0.7-2.1v-4.4h-1v-1c0.3,0,0.5-0.2,0.8-0.5c0.3-0.3,0.5-0.7,0.7-1.2
		c0.2-0.5,0.3-1,0.4-1.4c0.2,0,0.4,0,0.5,0c0.4,0,0.7,0.1,0.8,0.3c0.2,0.2,0.3,0.5,0.3,0.7v1.7h1.9c0,0.3,0,0.6,0,0.8
		c0,0.2-0.1,0.4-0.2,0.6H165.8z"/>
	<path id="T_4_" class="st0" d="M174.9,232.9v4.5c0,0.3,0.1,0.5,0.2,0.7c0.1,0.1,0.3,0.2,0.5,0.2c0.2,0,0.4-0.1,0.6-0.2
		c0.2-0.1,0.4-0.2,0.5-0.4c0.1,0.1,0.2,0.2,0.2,0.4c0.1,0.2,0.1,0.3,0.1,0.5c0,0.2-0.1,0.5-0.3,0.7c-0.2,0.2-0.4,0.4-0.8,0.6
		s-0.8,0.2-1.2,0.2c-0.7,0-1.3-0.2-1.8-0.6c-0.4-0.4-0.7-1.1-0.7-2.1v-4.4h-1v-1c0.3,0,0.5-0.2,0.8-0.5c0.3-0.3,0.5-0.7,0.7-1.2
		c0.2-0.5,0.3-1,0.4-1.4c0.2,0,0.4,0,0.5,0c0.4,0,0.7,0.1,0.8,0.3c0.2,0.2,0.3,0.5,0.3,0.7v1.7h1.9c0,0.3,0,0.6,0,0.8
		c0,0.2-0.1,0.4-0.2,0.6H174.9z"/>
	<path id="H_2_" class="st0" d="M186.5,239.6c-0.4,0.4-1,0.5-1.8,0.5c-1.1,0-1.6-0.3-1.6-1v-5.2c0-0.3-0.1-0.6-0.3-0.8
		c-0.2-0.2-0.4-0.3-0.8-0.3c-0.2,0-0.4,0.1-0.7,0.2c-0.2,0.1-0.4,0.3-0.5,0.5v4.7c0,0.3,0.1,0.5,0.2,0.7c0.1,0.1,0.4,0.2,0.7,0.2
		c0,0.3-0.1,0.6-0.4,0.9h-3.5c-0.2-0.2-0.4-0.5-0.4-0.9c0.3,0,0.5-0.1,0.7-0.2c0.1-0.1,0.2-0.4,0.2-0.7v-8.7c0-0.3-0.1-0.5-0.2-0.6
		c-0.1-0.1-0.4-0.2-0.8-0.2v-0.7c0.4-0.2,0.9-0.4,1.5-0.5c0.6-0.2,1.1-0.2,1.4-0.2c0.2,0,0.4,0.1,0.5,0.2c0.1,0.1,0.2,0.3,0.2,0.6
		v3.2l0,1.3c0.3-0.4,0.7-0.7,1.1-0.9c0.4-0.2,0.9-0.4,1.5-0.4c0.7,0,1.3,0.2,1.7,0.6c0.4,0.4,0.6,1,0.6,1.8v4.5
		c0,0.3,0.1,0.5,0.2,0.6c0.1,0.2,0.3,0.3,0.6,0.3L186.5,239.6z"/>
	<path id="E_2_" class="st0" d="M192,238.4c0.7,0,1.3-0.2,1.9-0.6c0.1,0.1,0.2,0.2,0.2,0.4c0.1,0.2,0.1,0.3,0.1,0.4
		c0,0.2-0.1,0.4-0.4,0.7c-0.3,0.2-0.6,0.5-1.1,0.6c-0.4,0.2-1,0.3-1.5,0.3c-0.8,0-1.5-0.2-2.1-0.5c-0.6-0.3-1-0.8-1.4-1.5
		c-0.3-0.7-0.5-1.4-0.5-2.3c0-0.9,0.2-1.7,0.5-2.4c0.4-0.7,0.8-1.2,1.4-1.6c0.6-0.4,1.3-0.6,2.1-0.6c1,0,1.7,0.3,2.3,0.8
		s0.9,1.3,0.9,2.4c0,0.5-0.1,0.8-0.2,1.1c-0.1,0.3-0.4,0.4-0.8,0.4H190C190,237.6,190.7,238.4,192,238.4z M191.2,232.4
		c-0.3,0-0.6,0.2-0.8,0.6c-0.2,0.4-0.3,1-0.4,1.8h1.6c0.2,0,0.3-0.1,0.3-0.2c0.1-0.1,0.1-0.3,0.1-0.5c0-0.6-0.1-1.1-0.2-1.3
		C191.6,232.6,191.4,232.4,191.2,232.4z"/>
	<path id="R_2_" class="st0" d="M203.8,231.3c0.5,0,0.8,0.1,1.1,0.4c0.2,0.2,0.3,0.6,0.3,1c0,0.5-0.1,0.8-0.4,1.1
		c-0.2,0.3-0.6,0.4-1,0.4c-0.4,0-0.6-0.1-0.9-0.3c-0.2-0.2-0.3-0.4-0.3-0.7c0-0.2,0-0.3,0-0.4c-0.4,0.1-0.7,0.3-1,0.5v4.8
		c0,0.3,0,0.5,0.1,0.6c0.1,0.1,0.2,0.2,0.4,0.3c0.2,0.1,0.6,0.1,1,0.1c0,0.2,0,0.4-0.1,0.5c0,0.1-0.1,0.3-0.2,0.4h-4.3
		c-0.2-0.2-0.4-0.5-0.4-0.9c0.3,0,0.5-0.1,0.7-0.2c0.1-0.1,0.2-0.4,0.2-0.7v-4.6c0-0.3-0.1-0.5-0.2-0.6c-0.1-0.1-0.4-0.2-0.8-0.2
		v-0.7c0.4-0.2,0.8-0.4,1.4-0.5c0.6-0.2,1-0.2,1.4-0.2c0.3,0,0.4,0.1,0.5,0.3c0.1,0.2,0.2,0.5,0.2,1.1c0.2-0.4,0.5-0.7,0.9-1
		C202.9,231.5,203.4,231.3,203.8,231.3z"/>
	<path id="I_3_" class="st0" d="M209.2,228.7c0,0.5-0.1,0.8-0.4,1.1c-0.3,0.3-0.7,0.4-1.1,0.4c-0.5,0-0.8-0.1-1.1-0.4
		c-0.3-0.3-0.4-0.6-0.4-1.1c0-0.4,0.1-0.8,0.4-1.1c0.3-0.3,0.7-0.4,1.1-0.4c0.5,0,0.8,0.1,1.1,0.4
		C209.1,227.9,209.2,228.2,209.2,228.7z M208.9,238.3c0,0.3,0.1,0.5,0.2,0.7c0.2,0.1,0.4,0.2,0.7,0.2c0,0.3-0.1,0.6-0.4,0.9h-3.6
		c-0.2-0.2-0.4-0.5-0.4-0.9c0.3,0,0.5-0.1,0.7-0.2c0.1-0.1,0.2-0.4,0.2-0.7v-4.6c0-0.3-0.1-0.5-0.2-0.6c-0.1-0.1-0.4-0.2-0.8-0.2
		v-0.7c0.3-0.2,0.7-0.3,1.3-0.5c0.6-0.2,1.1-0.3,1.6-0.3c0.2,0,0.4,0.1,0.5,0.2c0.1,0.1,0.2,0.3,0.2,0.6V238.3z"/>
	<path id="G_1_" class="st0" d="M214.4,238.1c1.4,0.1,2.4,0.3,3.1,0.8c0.7,0.4,1,1,1,1.8c0,0.5-0.2,1-0.6,1.5
		c-0.4,0.5-0.9,0.8-1.6,1.1c-0.7,0.3-1.4,0.4-2.1,0.4c-1.3,0-2.2-0.2-2.8-0.7c-0.6-0.4-0.9-1.1-0.9-1.8c0-0.4,0.1-0.8,0.4-1.1
		c0.3-0.3,0.6-0.6,1.1-0.7c-0.2-0.1-0.4-0.3-0.4-0.5c-0.1-0.2-0.1-0.5-0.1-0.8c0-0.2,0.1-0.4,0.2-0.6c0.1-0.2,0.4-0.4,0.6-0.4
		c-0.5-0.3-0.9-0.6-1.2-1.1c-0.3-0.5-0.4-1-0.4-1.5c0-0.6,0.1-1.1,0.4-1.5c0.3-0.4,0.7-0.8,1.2-1.1c0.5-0.3,1.2-0.4,1.9-0.4h0
		c0.4,0,0.7,0,1,0.1c1,0,1.7,0,2.1,0c0.4,0,0.8-0.1,1.1-0.1c0.1,0,0.2,0.1,0.2,0.2c0.1,0.1,0.1,0.3,0.1,0.4c0,0.5-0.2,0.7-0.6,0.7
		c-0.1,0-0.4-0.1-0.9-0.3c-0.1,0-0.2-0.1-0.4-0.2c0.4,0.3,0.6,0.6,0.8,1c0.2,0.4,0.3,0.7,0.3,1.1c0,1-0.3,1.8-1,2.3
		c-0.7,0.5-1.6,0.8-2.8,0.8c-0.3,0-0.6,0-1-0.1v0c0,0.3,0.1,0.4,0.3,0.6C213.5,238,213.9,238.1,214.4,238.1z M214.3,232.4
		c-0.3,0-0.6,0.2-0.7,0.5c-0.1,0.4-0.2,0.9-0.2,1.5c0,1.2,0.3,1.8,0.9,1.8c0.3,0,0.6-0.2,0.7-0.5s0.2-0.9,0.2-1.7
		c0-0.6-0.1-1-0.2-1.3C214.9,232.6,214.6,232.4,214.3,232.4z M214.7,242.3c0.5,0,0.9-0.1,1.1-0.4s0.4-0.5,0.4-0.9
		c0-0.3-0.2-0.6-0.6-0.7c-0.4-0.1-1-0.3-1.8-0.4l-0.7-0.1c-0.1,0.2-0.2,0.5-0.2,0.9c0,0.5,0.1,0.9,0.4,1.2
		C213.5,242.1,214,242.3,214.7,242.3z"/>
	<path id="H_3_" class="st0" d="M227.9,239.6c-0.4,0.4-1,0.5-1.8,0.5c-1.1,0-1.6-0.3-1.6-1v-5.2c0-0.3-0.1-0.6-0.3-0.8
		c-0.2-0.2-0.4-0.3-0.8-0.3c-0.2,0-0.4,0.1-0.7,0.2c-0.2,0.1-0.4,0.3-0.5,0.5v4.7c0,0.3,0.1,0.5,0.2,0.7c0.1,0.1,0.4,0.2,0.7,0.2
		c0,0.3-0.1,0.6-0.4,0.9h-3.5c-0.2-0.2-0.4-0.5-0.4-0.9c0.3,0,0.5-0.1,0.7-0.2c0.1-0.1,0.2-0.4,0.2-0.7v-8.7c0-0.3-0.1-0.5-0.2-0.6
		c-0.1-0.1-0.4-0.2-0.8-0.2v-0.7c0.4-0.2,0.9-0.4,1.5-0.5c0.6-0.2,1.1-0.2,1.4-0.2c0.2,0,0.4,0.1,0.5,0.2c0.1,0.1,0.2,0.3,0.2,0.6
		v3.2l0,1.3c0.3-0.4,0.6-0.7,1.1-0.9c0.4-0.2,0.9-0.4,1.5-0.4c0.7,0,1.3,0.2,1.7,0.6c0.4,0.4,0.6,1,0.6,1.8v4.5
		c0,0.3,0.1,0.5,0.2,0.6c0.1,0.2,0.3,0.3,0.6,0.3L227.9,239.6z"/>
	<path id="T_5_" class="st0" d="M231.9,232.9v4.5c0,0.3,0.1,0.5,0.2,0.7c0.1,0.1,0.3,0.2,0.5,0.2c0.2,0,0.4-0.1,0.6-0.2
		c0.2-0.1,0.4-0.2,0.5-0.4c0.1,0.1,0.2,0.2,0.2,0.4c0.1,0.2,0.1,0.3,0.1,0.5c0,0.2-0.1,0.5-0.3,0.7c-0.2,0.2-0.4,0.4-0.8,0.6
		c-0.3,0.1-0.8,0.2-1.2,0.2c-0.7,0-1.3-0.2-1.8-0.6c-0.4-0.4-0.7-1.1-0.7-2.1v-4.4h-1v-1c0.3,0,0.5-0.2,0.8-0.5
		c0.3-0.3,0.5-0.7,0.7-1.2c0.2-0.5,0.3-1,0.4-1.4c0.2,0,0.4,0,0.5,0c0.4,0,0.7,0.1,0.8,0.3c0.2,0.2,0.3,0.5,0.3,0.7v1.7h1.9
		c0,0.3,0,0.6,0,0.8c0,0.2-0.1,0.4-0.2,0.6H231.9z"/>
	<path id="T_6_" class="st0" d="M241,232.9v4.5c0,0.3,0.1,0.5,0.2,0.7c0.1,0.1,0.3,0.2,0.5,0.2c0.2,0,0.4-0.1,0.6-0.2
		c0.2-0.1,0.4-0.2,0.5-0.4c0.1,0.1,0.2,0.2,0.2,0.4c0.1,0.2,0.1,0.3,0.1,0.5c0,0.2-0.1,0.5-0.3,0.7c-0.2,0.2-0.4,0.4-0.8,0.6
		c-0.3,0.1-0.8,0.2-1.2,0.2c-0.7,0-1.4-0.2-1.8-0.6c-0.4-0.4-0.7-1.1-0.7-2.1v-4.4h-1v-1c0.3,0,0.5-0.2,0.8-0.5
		c0.3-0.3,0.5-0.7,0.7-1.2c0.2-0.5,0.3-1,0.4-1.4c0.2,0,0.4,0,0.5,0c0.4,0,0.7,0.1,0.8,0.3c0.2,0.2,0.3,0.5,0.3,0.7v1.7h1.9
		c0,0.3,0,0.6,0,0.8c0,0.2-0.1,0.4-0.2,0.6H241z"/>
	<path id="I_4_" class="st0" d="M247.4,228.7c0,0.5-0.1,0.8-0.4,1.1c-0.3,0.3-0.7,0.4-1.1,0.4c-0.5,0-0.8-0.1-1.1-0.4
		c-0.3-0.3-0.4-0.6-0.4-1.1c0-0.4,0.1-0.8,0.4-1.1c0.3-0.3,0.7-0.4,1.1-0.4s0.8,0.1,1.1,0.4C247.3,227.9,247.4,228.2,247.4,228.7z
		 M247.1,238.3c0,0.3,0.1,0.5,0.2,0.7c0.2,0.1,0.4,0.2,0.7,0.2c0,0.3-0.1,0.6-0.4,0.9h-3.6c-0.2-0.2-0.4-0.5-0.4-0.9
		c0.3,0,0.5-0.1,0.7-0.2c0.1-0.1,0.2-0.4,0.2-0.7v-4.6c0-0.3-0.1-0.5-0.2-0.6c-0.1-0.1-0.4-0.2-0.8-0.2v-0.7
		c0.3-0.2,0.7-0.3,1.3-0.5c0.6-0.2,1.1-0.3,1.6-0.3c0.2,0,0.4,0.1,0.5,0.2c0.1,0.1,0.2,0.3,0.2,0.6V238.3z"/>
	<path id="M" class="st0" d="M261.7,238.3c0,0.5,0.3,0.7,0.8,0.8v0.5c-0.4,0.4-1.1,0.5-2,0.5c-0.4,0-0.8-0.1-1.1-0.2
		c-0.3-0.1-0.4-0.3-0.4-0.7v-5.3c0-0.3-0.1-0.6-0.3-0.8c-0.2-0.2-0.4-0.3-0.7-0.3c-0.4,0-0.7,0.1-1,0.4c0,0.1,0,0.1,0,0.2v4.8
		c0,0.3,0.1,0.5,0.2,0.7c0.1,0.1,0.3,0.2,0.6,0.2c0,0.3-0.1,0.6-0.4,0.9h-3.4c-0.2-0.3-0.4-0.6-0.4-0.9c0.3,0,0.5-0.1,0.6-0.2
		c0.1-0.1,0.2-0.4,0.2-0.7v-4.3c0-0.3-0.1-0.6-0.3-0.8c-0.2-0.2-0.4-0.3-0.7-0.3c-0.2,0-0.4,0.1-0.6,0.2c-0.2,0.1-0.4,0.2-0.5,0.4
		v4.8c0,0.3,0.1,0.5,0.2,0.7c0.1,0.1,0.3,0.2,0.6,0.2c0,0.3-0.1,0.6-0.4,0.9h-3.5c-0.3-0.3-0.4-0.5-0.4-0.9c0.3,0,0.5-0.1,0.7-0.2
		c0.1-0.1,0.2-0.4,0.2-0.7v-4.7c0-0.3-0.1-0.5-0.2-0.6c-0.2-0.1-0.4-0.2-0.8-0.2v-0.7c0.3-0.2,0.8-0.4,1.4-0.5
		c0.6-0.2,1.1-0.2,1.4-0.2c0.2,0,0.4,0.1,0.5,0.2c0.1,0.1,0.2,0.4,0.3,0.8c0.3-0.3,0.6-0.6,1.1-0.8c0.4-0.2,0.9-0.3,1.4-0.3
		c1.1,0,1.8,0.4,2.1,1.1c0.3-0.3,0.6-0.6,1.1-0.8c0.4-0.2,0.9-0.3,1.5-0.3c0.8,0,1.3,0.2,1.7,0.6s0.6,0.9,0.6,1.6V238.3z"/>
	<path id="E_3_" class="st0" d="M267.9,238.4c0.7,0,1.3-0.2,1.9-0.6c0.1,0.1,0.2,0.2,0.2,0.4s0.1,0.3,0.1,0.4c0,0.2-0.1,0.4-0.4,0.7
		c-0.3,0.2-0.6,0.5-1.1,0.6c-0.4,0.2-1,0.3-1.5,0.3c-0.8,0-1.5-0.2-2.1-0.5c-0.6-0.3-1-0.8-1.4-1.5s-0.5-1.4-0.5-2.3
		c0-0.9,0.2-1.7,0.5-2.4c0.4-0.7,0.8-1.2,1.4-1.6c0.6-0.4,1.3-0.6,2.1-0.6c1,0,1.7,0.3,2.3,0.8c0.6,0.6,0.9,1.3,0.9,2.4
		c0,0.5-0.1,0.8-0.2,1.1c-0.1,0.3-0.4,0.4-0.8,0.4h-3.5C266,237.6,266.7,238.4,267.9,238.4z M267.1,232.4c-0.3,0-0.6,0.2-0.8,0.6
		c-0.2,0.4-0.3,1-0.4,1.8h1.6c0.2,0,0.3-0.1,0.3-0.2c0.1-0.1,0.1-0.3,0.1-0.5c0-0.6-0.1-1.1-0.2-1.3
		C267.6,232.6,267.4,232.4,267.1,232.4z"/>
</g>
<g id="QualityWork">
	<path id="Q" class="st0" d="M43.9,215.9c0.2,0.2,0.3,0.5,0.4,0.8c0.2,0.4,0.2,0.7,0.2,0.9c0,0.6-0.2,1.1-0.6,1.7
		c-0.4,0.6-1.1,1.1-2,1.5c-0.9,0.4-1.9,0.6-3.2,0.6c-1.3,0-2.4-0.2-3.3-0.6c-0.9-0.4-1.9-1-3-1.8c-1-0.7-1.8-1.2-2.5-1.6
		c-0.7-0.3-1.5-0.5-2.5-0.5c-1.1,0-2,0.1-2.7,0.2c-0.6,0.2-1.3,0.5-2.2,1.1l-1.3-1.6c0.7-1.3,1.9-2.3,3.4-3
		c-2.6-0.2-4.9-1.1-6.8-2.5c-1.9-1.4-3.4-3.4-4.4-5.8c-1-2.4-1.5-5.2-1.5-8.3c0-3.5,0.6-6.4,1.7-8.9c1.2-2.5,2.8-4.4,4.9-5.8
		c2.1-1.3,4.6-2,7.5-2c2.9,0,5.5,0.7,7.6,2.1c2.1,1.4,3.8,3.3,4.9,5.8c1.2,2.5,1.7,5.4,1.7,8.7c0,4.1-0.8,7.5-2.5,10.3
		c-1.6,2.7-3.9,4.6-6.9,5.6c1.1,0.2,2.2,0.6,3.3,1.1c1.1,0.5,2.3,1.1,3.5,1.8c0.8,0.4,1.7,0.6,2.9,0.6C42,216.4,43,216.2,43.9,215.9
		z M20.6,197.1c0,4.8,0.5,8.2,1.5,10.2c1,1.9,2.4,2.9,4.1,2.9c1.7,0,3.1-1,4.1-2.9c1.1-1.9,1.6-5.4,1.6-10.5c0-4.8-0.5-8.2-1.5-10.2
		c-1-1.9-2.4-2.9-4.1-2.9c-1.7,0-3.1,1-4.1,2.9C21.1,188.6,20.6,192.1,20.6,197.1z"/>
	<path id="U" class="st0" d="M65.2,207.6c0,0.7,0.2,1.3,0.6,1.8c0.4,0.5,1,0.8,1.7,0.8v1.3c-0.5,0.6-1.3,1-2.3,1.3
		c-1,0.3-2,0.5-3.1,0.5c-1,0-1.9-0.3-2.7-0.8s-1.2-1.3-1.5-2.3c-1.5,2.1-3.6,3.1-6.3,3.1c-2.1,0-3.8-0.7-5-2
		c-1.2-1.3-1.8-3.1-1.8-5.3v-12.6c0-0.5-0.2-0.9-0.6-1.1c-0.4-0.2-0.9-0.3-1.7-0.3v-2c0.5-0.4,1.3-0.7,2.6-1.1
		c1.3-0.4,2.7-0.6,4.2-0.6c0.9,0,1.5,0.1,1.9,0.2c0.4,0.1,0.7,0.3,0.8,0.6c0.2,0.3,0.2,0.9,0.2,1.6v15.5c0,0.9,0.2,1.7,0.5,2.2
		c0.3,0.5,0.9,0.7,1.6,0.7c0.6,0,1.2-0.2,1.8-0.6c0.6-0.4,1.1-0.9,1.6-1.4v-13.7c0-1-0.9-1.4-2.6-1.4v-2c0.5-0.4,1.4-0.8,2.7-1.1
		c1.3-0.4,2.8-0.6,4.3-0.6c1.3,0,2.1,0.2,2.5,0.5c0.4,0.3,0.6,0.9,0.6,2V207.6z"/>
	<path id="A" class="st0" d="M69,206.5c0-2.1,0.7-3.7,2-4.9c1.3-1.2,3.3-1.8,6-1.8c0.9,0,1.9,0.1,2.8,0.3c1,0.2,1.8,0.4,2.4,0.7
		v-6.1c0-1.2-0.3-2.1-0.9-2.6c-0.6-0.6-1.4-0.8-2.5-0.8c-1,0-1.8,0.2-2.5,0.7c0.6,0.2,1,0.5,1.3,1c0.3,0.4,0.5,0.9,0.5,1.5
		c0,1-0.4,1.8-1.1,2.4c-0.7,0.6-1.6,0.9-2.7,0.9c-1.2,0-2.1-0.3-2.8-1c-0.7-0.7-1.1-1.5-1.1-2.6c0-1.1,0.4-2.1,1.1-3
		c0.7-1,1.9-1.7,3.4-2.3c1.5-0.6,3.4-0.9,5.7-0.9c3,0,5.3,0.6,6.9,1.9c1.6,1.2,2.3,3,2.3,5.4v12.2c0,1.5,0.7,2.4,2.1,2.7v1.5
		c-0.4,0.6-1.1,1-2,1.3c-0.9,0.3-1.9,0.5-2.8,0.5c-2.1,0-3.6-0.7-4.4-2.2c-0.7,0.6-1.6,1.1-2.6,1.6c-1,0.4-2.2,0.6-3.4,0.6
		c-2.3,0-4.2-0.6-5.6-1.9C69.7,210.1,69,208.5,69,206.5z M82.2,204.4c-0.3-0.2-0.8-0.4-1.2-0.6c-0.5-0.2-0.9-0.2-1.3-0.2
		c-0.9,0-1.6,0.3-2.1,0.8c-0.6,0.5-0.8,1.3-0.8,2.3c0,0.8,0.3,1.5,0.8,2.1c0.6,0.5,1.3,0.8,2.2,0.8c0.5,0,0.9-0.1,1.3-0.2
		c0.5-0.2,0.8-0.3,1.2-0.6V204.4z"/>
	<path id="L" class="st0" d="M96.5,183.6c0-0.8-0.2-1.3-0.7-1.7c-0.4-0.4-1.2-0.6-2.4-0.6v-1.8c1.1-0.6,2.5-1.1,4.2-1.6
		c1.7-0.4,3.1-0.6,4.1-0.6c0.7,0,1.3,0.2,1.6,0.5c0.3,0.3,0.5,0.8,0.5,1.6V208c0,1,0.2,1.6,0.6,2c0.4,0.4,1.1,0.6,2,0.6
		c0,0.9-0.4,1.7-1.1,2.5H95c-0.7-0.8-1.1-1.6-1.1-2.5c0.9,0,1.5-0.2,1.9-0.6c0.4-0.4,0.6-1.1,0.6-2V183.6z"/>
	<path id="I" class="st0" d="M119.1,180.5c0,1.3-0.4,2.4-1.2,3.2c-0.8,0.8-1.9,1.2-3.2,1.2c-1.3,0-2.4-0.4-3.2-1.2
		c-0.8-0.8-1.2-1.9-1.2-3.2c0-1.3,0.4-2.3,1.2-3.1c0.8-0.8,1.9-1.2,3.2-1.2c1.3,0,2.4,0.4,3.2,1.2
		C118.7,178.1,119.1,179.2,119.1,180.5z M118.2,208c0,0.9,0.2,1.5,0.6,1.9c0.5,0.4,1.2,0.6,2.1,0.6c0,0.9-0.4,1.8-1.1,2.5h-10.4
		c-0.7-0.7-1.1-1.5-1.1-2.5c0.9,0,1.6-0.2,2-0.6c0.4-0.4,0.6-1.1,0.6-2v-13.3c0-0.9-0.2-1.5-0.6-1.8c-0.4-0.4-1.2-0.6-2.4-0.6v-2
		c0.7-0.5,2-0.9,3.7-1.4c1.8-0.5,3.3-0.8,4.5-0.8c0.7,0,1.2,0.2,1.5,0.5c0.3,0.3,0.5,0.8,0.5,1.6V208z"/>
	<path id="T" class="st0" d="M132.3,192.7v13c0,0.9,0.2,1.6,0.6,1.9c0.4,0.3,0.9,0.5,1.6,0.5c0.6,0,1.2-0.2,1.8-0.5
		c0.6-0.3,1.2-0.7,1.5-1.1c0.3,0.2,0.5,0.6,0.6,1.1c0.2,0.5,0.2,0.9,0.2,1.3c0,0.7-0.2,1.4-0.7,2.1c-0.5,0.7-1.2,1.2-2.2,1.7
		c-1,0.4-2.2,0.6-3.5,0.6c-2.1,0-3.9-0.6-5.2-1.8c-1.3-1.2-1.9-3.3-1.9-6.1v-12.6h-2.9v-2.8c0.8-0.1,1.6-0.6,2.3-1.5
		c0.8-0.9,1.4-2.1,1.9-3.4c0.6-1.4,0.9-2.7,1.1-4.1c0.6-0.1,1.1-0.1,1.5-0.1c1.1,0,1.9,0.3,2.4,1c0.6,0.6,0.8,1.3,0.8,2.1v4.8h5.3
		c0,0.9,0,1.7-0.1,2.4c-0.1,0.6-0.3,1.2-0.6,1.7H132.3z"/>
	<path id="Y" class="st0" d="M163.9,188.6c0.6,0.6,0.9,1.6,0.9,2.8c-0.7,0-1.3,0.2-1.7,0.6c-0.4,0.4-0.8,1-1.1,1.8l-5.2,16.3
		c-1.4,4.5-2.9,7.7-4.4,9.7c-1.6,2-3.5,2.9-5.9,2.9c-1.8,0-3.3-0.4-4.2-1.1c-1-0.8-1.5-1.7-1.5-2.9c0-0.7,0.2-1.4,0.5-2
		c0.4-0.6,0.8-1,1.4-1.2c0.8,1,2.1,1.5,3.7,1.5c1,0,1.9-0.5,2.9-1.4c1-1,1.7-2.3,2.3-4.2h-3.8l-7.1-17.2c-0.1-0.2-0.2-0.6-0.5-1.1
		c-0.2-0.6-0.6-1-0.9-1.2c-0.4-0.2-0.8-0.4-1.4-0.4c0-1.2,0.3-2.1,1-2.8h10.9c0.7,0.8,1.1,1.7,1.1,2.8c-1.4,0-2.1,0.7-2.1,2.1
		c0,0.6,0.1,1.1,0.2,1.5l4.3,12.5l3-13.1c0.1-0.4,0.1-0.8,0.1-1.1c0-1.3-0.8-1.9-2.3-1.9c0-1.3,0.3-2.2,0.9-2.8H163.9z"/>
	<path id="W" class="st0" d="M218,180.9c0.5,0.8,0.7,1.8,0.7,2.9c-1.1,0-1.9,0.2-2.5,0.5c-0.6,0.3-1,0.9-1.2,1.7l-5.8,21.1
		c-0.6,2.2-1.4,3.8-2.3,4.8c-0.9,1-2.1,1.5-3.6,1.5h-2.6l-4.2-14.8l-1.8-6.8l-1.5,6.8l-2.3,8.5c-0.6,2.2-1.3,3.8-2.2,4.8
		c-0.9,1-2,1.5-3.5,1.5h-2.5l-8.1-27.4c-0.2-0.8-0.6-1.4-1-1.7c-0.4-0.3-1.2-0.5-2.2-0.5c0-1.2,0.2-2.1,0.7-2.9h12.4
		c0.5,1,0.8,2,0.8,2.9c-1.1,0-1.8,0.2-2.2,0.6c-0.4,0.4-0.6,0.9-0.6,1.5l4,14.9l0.7,3.8l4.4-16.8c0.2-1.3,0.6-2.4,1.2-3.2
		c0.6-0.9,1.3-1.3,2.2-1.3h4.8l4.6,17.5l1,4l1.1-4l3.4-13.2c0.1-0.3,0.1-0.6,0.1-0.9c0-0.8-0.3-1.4-0.9-1.9
		c-0.6-0.5-1.4-0.7-2.3-0.7c0-1.2,0.2-2.1,0.6-2.9H218z"/>
	<path id="O" class="st0" d="M227.4,213.6c-3.4,0-6.1-1.1-8.1-3.2c-2-2.1-3-5.2-3-9.2c0-2.8,0.5-5.2,1.4-7.2c1-2,2.3-3.5,4.1-4.5
		c1.7-1,3.8-1.5,6.1-1.5c2.2,0,4.1,0.5,5.8,1.5c1.7,0.9,3,2.4,3.9,4.2c1,1.9,1.4,4.1,1.4,6.8c0,2.8-0.5,5.2-1.5,7.1
		c-1,2-2.3,3.4-4,4.5C231.7,213.1,229.7,213.6,227.4,213.6z M227.8,210.3c1.1,0,1.9-0.6,2.4-1.8c0.5-1.2,0.8-3.5,0.8-6.8
		c0-2.8-0.1-4.9-0.4-6.4c-0.3-1.5-0.7-2.5-1.1-3.1s-1.1-0.8-1.9-0.8c-1.1,0-1.9,0.6-2.4,1.8c-0.5,1.2-0.8,3.5-0.8,6.9
		c0,2.8,0.1,4.9,0.4,6.4c0.3,1.5,0.7,2.5,1.1,3C226.4,210,227,210.3,227.8,210.3z"/>
	<path id="R" class="st0" d="M257.1,188c1.4,0,2.4,0.4,3,1.1c0.6,0.7,1,1.7,1,2.9c0,1.3-0.4,2.4-1.1,3.2c-0.7,0.8-1.6,1.2-2.8,1.2
		c-1,0-1.8-0.3-2.5-0.9c-0.6-0.6-0.9-1.3-0.9-2.1c0-0.5,0-0.9,0.1-1.2c-1.1,0.3-2,0.8-2.8,1.4v13.8c0,0.8,0.1,1.3,0.3,1.7
		c0.2,0.4,0.6,0.7,1.2,0.9c0.6,0.2,1.6,0.3,2.9,0.3c0,0.6-0.1,1-0.2,1.4c-0.1,0.4-0.4,0.7-0.7,1.1h-12.3c-0.7-0.7-1.1-1.5-1.1-2.5
		c0.9,0,1.5-0.2,1.9-0.6c0.4-0.4,0.6-1.1,0.6-2v-13.3c0-0.8-0.2-1.4-0.7-1.7c-0.4-0.3-1.2-0.5-2.3-0.5v-2.1c1-0.6,2.3-1.1,4-1.5
		c1.7-0.5,3-0.7,3.9-0.7c0.7,0,1.3,0.3,1.6,0.8c0.3,0.5,0.5,1.6,0.5,3.1c0.6-1,1.4-2,2.6-2.8C254.6,188.4,255.8,188,257.1,188z"/>
	<path id="K" class="st0" d="M287.7,211.4c-0.1,0.6-0.5,1.1-1.3,1.5c-0.7,0.3-1.7,0.5-2.9,0.5c-1.6,0-2.9-0.3-3.9-1
		c-1-0.7-1.8-1.5-2.4-2.4c-0.6-1-1.2-2.2-1.9-3.7c-0.7-1.5-1.3-2.7-1.8-3.4c-0.5-0.8-1.1-1.4-1.9-1.7v7c0,0.9,0.2,1.5,0.6,1.9
		c0.4,0.4,1.1,0.6,2,0.6c0,0.9-0.4,1.8-1.1,2.4H263c-0.7-0.6-1.1-1.5-1.1-2.4c0.9,0,1.6-0.2,1.9-0.6c0.4-0.4,0.6-1,0.6-1.9v-24.9
		c0-0.8-0.2-1.3-0.6-1.7c-0.4-0.4-1.2-0.6-2.4-0.6v-1.8c1.1-0.6,2.5-1.1,4.2-1.6c1.7-0.5,3.1-0.7,4-0.7c0.7,0,1.3,0.2,1.6,0.5
		c0.3,0.3,0.5,0.9,0.5,1.7v20.5l5.1-5.2c0.6-0.6,0.9-1,0.9-1.4c0-0.4-0.3-0.8-1-1.2c-0.6-0.4-1.3-0.6-1.9-0.6c0-0.5,0.1-1,0.3-1.5
		c0.2-0.5,0.4-0.9,0.8-1.3h10.3c0.6,0.6,0.9,1.5,0.9,2.8c-0.7,0-1.3,0.1-1.7,0.3c-0.4,0.2-0.8,0.5-1.2,0.9l-7,6.9
		c1.1,0.2,2.1,0.6,2.9,1.1c0.8,0.6,1.5,1.4,2.2,2.6c0.8,1.4,1.2,2.1,1.2,2.2c1,1.9,1.8,3.1,2.3,3.8c0.5,0.6,1.3,1.1,2.2,1.4
		L287.7,211.4z"/>
</g>
<radialGradient id="Label_1_" cx="-837.4238" cy="1137.171" r="1" gradientTransform="matrix(5.000000e-15 75.5 76 -5.000000e-15 -86275.6797 63308)" gradientUnits="userSpaceOnUse">
	<stop  offset="0" style="stop-color:#FFCC00"/>
	<stop  offset="1" style="stop-color:#D09F0C"/>
</radialGradient>
<path id="Label" class="st1" d="M150.1,7c12.2,0.1,23.7,3.1,33.9,8.3c-5.3-1.1-10.5,2-16,6.5c-2,1.7-2,2-1.3,4.5
	c3,11.2,3,22.1,0.8,32.9l-18.2-18.1l-18.2,18.1c-2.3-10.8-2.2-21.7,0.8-32.9c0.7-2.5,0.7-2.8-1.3-4.5c-5.4-4.5-10.6-7.6-16-6.5
	c10.2-5.2,21.7-8.2,33.9-8.3c-3.1,5.8-5.5,12.5-7.3,19.8c-0.3,1.1,0,1.3,0.9,0.6l7-5.8c0.1-0.1,0.2-0.1,0.3,0l7,5.8
	c0.9,0.8,1.2,0.5,0.9-0.6C155.5,19.5,153.2,12.8,150.1,7L150.1,7z M172.8,64.4c10.9-2.3,21.9-2.2,33.1,0.8c2.5,0.7,2.8,0.7,4.5-1.3
	c4.5-5.4,7.7-10.5,6.6-15.8c5.2,10.1,8.2,21.6,8.4,33.7c-5.8-3.1-12.6-5.4-19.9-7.3c-1.1-0.3-1.3,0-0.6,0.9l5.8,7
	c0.1,0.1,0.1,0.2,0,0.3l-5.8,7c-0.8,0.9-0.5,1.2,0.6,0.9c7.4-1.8,14.1-4.2,19.9-7.3c-0.1,12.1-3.1,23.6-8.4,33.7
	c1.1-5.3-2-10.4-6.6-15.8c-1.7-2-2-2-4.5-1.3c-11.2,3-22.3,3-33.1,0.8l18.2-18.1L172.8,64.4L172.8,64.4z M167.5,105.8
	c2.3,10.8,2.2,21.7-0.8,32.9c-0.7,2.5-0.7,2.8,1.3,4.5c5.4,4.5,10.6,7.6,16,6.5c-10.2,5.2-21.7,8.2-33.9,8.3
	c3.1-5.8,5.5-12.5,7.3-19.8c0.3-1.1,0-1.3-0.9-0.6l-7,5.8c-0.1,0.1-0.2,0.1-0.3,0l-7-5.8c-0.9-0.8-1.2-0.5-0.9,0.6
	c1.8,7.3,4.2,14,7.3,19.8c-12.2-0.1-23.7-3.1-33.9-8.3c5.3,1.1,10.5-2,16-6.5c2-1.7,2-2,1.3-4.5c-3-11.2-3-22.1-0.8-32.9l18.2,18.1
	L167.5,105.8L167.5,105.8z M125.9,100.6c-10.9,2.3-21.9,2.2-33.1-0.8c-2.5-0.7-2.8-0.7-4.5,1.3c-4.5,5.4-7.7,10.5-6.6,15.8
	c-5.2-10.1-8.2-21.6-8.4-33.7c5.8,3.1,12.6,5.4,19.9,7.3c1.1,0.3,1.3,0,0.6-0.9l-5.8-7c-0.1-0.1-0.1-0.2,0-0.3l5.8-7
	c0.8-0.9,0.5-1.2-0.6-0.9c-7.4,1.8-14.1,4.2-19.9,7.3c0.1-12.1,3.1-23.6,8.4-33.7c-1.1,5.3,2,10.4,6.6,15.8c1.7,2,2,2,4.5,1.3
	c11.2-3,22.3-3,33.1-0.8l-18.2,18.1L125.9,100.6L125.9,100.6z M195.3,128.4c-5.7-1.6-11.5-4.3-17.4-7.8c-0.8-0.5-0.8-0.8,0.2-0.9
	l7.7-0.7c0.1,0,0.2,0,0.2-0.2l0.7-7.7c0.1-1,0.4-1,0.9-0.2c3.5,5.8,6.3,11.6,7.9,17.2C195.5,128.3,195.4,128.4,195.3,128.4z
	 M195.5,36.8c-1.6,5.7-4.3,11.4-7.9,17.2c-0.5,0.8-0.8,0.8-0.9-0.2l-0.7-7.7c0-0.1,0-0.2-0.2-0.2l-7.7-0.7c-1-0.1-1-0.4-0.2-0.9
	c5.9-3.5,11.7-6.2,17.4-7.8C195.4,36.6,195.5,36.7,195.5,36.8z M103.2,36.8c1.6,5.7,4.3,11.4,7.9,17.2c0.5,0.8,0.8,0.8,0.9-0.2
	l0.7-7.7c0-0.1,0-0.2,0.2-0.2l7.7-0.7c1-0.1,1-0.4,0.2-0.9c-5.9-3.5-11.7-6.2-17.4-7.8C103.2,36.6,103.1,36.7,103.2,36.8L103.2,36.8
	z M103.3,128.4c5.7-1.6,11.5-4.3,17.4-7.8c0.8-0.5,0.8-0.8-0.2-0.9l-7.7-0.7c-0.1,0-0.2,0-0.2-0.2l-0.7-7.7c-0.1-1-0.4-1-0.9-0.2
	c-3.5,5.8-6.3,11.6-7.9,17.2C103.1,128.3,103.2,128.4,103.3,128.4L103.3,128.4z M191.4,19.6c8.4,5.6,15.6,12.7,21.2,21.1
	c-2.6-2.7-6.5-5.4-12-8.3c-0.5-0.3-0.6-0.4-0.9-0.8C196.9,26.1,194.1,22.2,191.4,19.6L191.4,19.6z M212.6,124.3
	c-5.6,8.3-12.8,15.5-21.2,21.1c2.7-2.6,5.4-6.5,8.3-11.9c0.3-0.5,0.4-0.6,0.8-0.8C206.1,129.7,210,127,212.6,124.3L212.6,124.3z
	 M107.2,145.4c-8.4-5.6-15.6-12.7-21.2-21.1c2.6,2.7,6.5,5.4,12,8.3c0.5,0.2,0.6,0.4,0.8,0.8C101.8,138.9,104.6,142.8,107.2,145.4
	L107.2,145.4z M86,40.7c5.6-8.3,12.8-15.5,21.2-21.1c-2.7,2.6-5.5,6.5-8.4,11.9c-0.3,0.5-0.4,0.6-0.9,0.8C92.6,35.3,88.7,38,86,40.7
	L86,40.7z"/>
<path id="Label_Q" class="st0" d="M165.4,97.6c0.1,0.2,0.3,0.4,0.4,0.8c0.1,0.4,0.2,0.6,0.2,0.8c0,0.5-0.2,1-0.6,1.6
	c-0.4,0.5-1,1-1.8,1.3c-0.8,0.4-1.8,0.5-2.9,0.5c-1.2,0-2.2-0.2-3-0.6c-0.8-0.4-1.7-1-2.7-1.7c-0.9-0.6-1.6-1.1-2.3-1.5
	c-0.6-0.3-1.4-0.5-2.3-0.5c-1,0-1.8,0.1-2.4,0.2c-0.6,0.1-1.2,0.5-2,1l-1.2-1.4c0.7-1.2,1.7-2.1,3.1-2.7c-2.4-0.2-4.4-1-6.2-2.3
	c-1.7-1.3-3.1-3.1-4-5.2c-0.9-2.2-1.3-4.7-1.3-7.6c0-3.2,0.5-5.9,1.6-8.1c1.1-2.3,2.6-4,4.5-5.2c2-1.2,4.2-1.8,6.8-1.8
	c2.7,0,5,0.6,7,1.9c2,1.3,3.5,3,4.5,5.3c1.1,2.3,1.6,4.9,1.6,8c0,3.8-0.8,6.9-2.3,9.4c-1.5,2.5-3.6,4.2-6.3,5.1c1,0.2,2,0.6,3,1
	c1,0.5,2.1,1,3.2,1.6c0.7,0.4,1.6,0.6,2.7,0.6C163.7,98.1,164.6,97.9,165.4,97.6z M144.2,80.5c0,4.4,0.4,7.5,1.3,9.3
	c0.9,1.8,2.2,2.6,3.8,2.6c1.5,0,2.8-0.9,3.7-2.6c1-1.8,1.5-5,1.5-9.6c0-4.4-0.4-7.5-1.3-9.3s-2.2-2.6-3.8-2.6
	c-1.5,0-2.8,0.9-3.8,2.6C144.7,72.7,144.2,75.9,144.2,80.5z"/>
</svg>
